<svg xmlns="http://www.w3.org/2000/svg" xmlns:xlink="http://www.w3.org/1999/xlink" viewBox="0 0 130.85 79.51"><defs><style>.cls-1,.cls-2,.cls-5{fill:none;}.cls-2,.cls-5{stroke:#1b1918;}.cls-2{stroke-width:1.5px;}.cls-3{fill:#fff;}.cls-4{fill:#1b1918;fill-rule:evenodd;}.cls-5{stroke-width:0.16px;}.cls-6{fill:#dc3832;}.cls-7{clip-path:url(#clip-path);}.cls-8{fill:url(#linear-gradient);}.cls-9{fill:#5d5d5d;opacity:0.12;isolation:isolate;}.cls-10{fill:#f2f2f2;}.cls-11{clip-path:url(#clip-path-2);}.cls-12{clip-path:url(#clip-path-3);}.cls-13{fill:url(#linear-gradient-2);}.cls-14{fill:url(#linear-gradient-3);}.cls-15{fill:url(#linear-gradient-4);}.cls-16{fill:url(#linear-gradient-5);}.cls-17{fill:url(#linear-gradient-6);}</style><clipPath id="clip-path" transform="translate(0 0)"><path class="cls-1" d="M15.73,24l14.5,3,14.51-7.09C43.14,7.38,36.22,6,32.6,3.41S26.27.88,22.56.29,20-.71,12.44,6.53s-8.35,13-8.35,13l2.53,2.62Z"/></clipPath><linearGradient id="linear-gradient" x1="470.47" y1="76.63" x2="483.66" y2="76.63" gradientTransform="matrix(1, 0, 0, -1, -451.78, 93.53)" gradientUnits="userSpaceOnUse"><stop offset="0.01" stop-color="#9b1f18"/><stop offset="0.15" stop-color="#aa251e"/><stop offset="0.49" stop-color="#c52f29"/><stop offset="0.78" stop-color="#d63630"/><stop offset="1" stop-color="#dc3832"/></linearGradient><clipPath id="clip-path-2" transform="translate(0 0)"><path class="cls-1" d="M45.47,29.12c-1.68,3.71-10.74,4.18-10.74,4.18a6.3,6.3,0,0,0,1.85-1.48s-8.37,3.73-16.46,2.44a3.28,3.28,0,0,0,1.68-1,6.25,6.25,0,0,1-4.44.91s1.75-.23,2.17-1a26.09,26.09,0,0,1-10-.63l.17.38a1.4,1.4,0,0,1-.57-.56l-.33-.12a12.47,12.47,0,0,1-1.89-.87,2.2,2.2,0,0,1-.75-2.25A2,2,0,0,0,7,30.36s-2.34-5.21-2.5-7.74c0,0,.34,1.57,1,.77,0,0-1.13-3.91.87-5.78,0,0,.25,2.39,4.14,3.16a24.25,24.25,0,0,0,8.29-.16,2.74,2.74,0,0,1-2.33,1.67,10.1,10.1,0,0,0,5-2.11s.22.78-1.36,1.79c0,0,6.11-.32,8.14-1.7a.9.9,0,0,1-.47,1s6.71.61,9.9-.63a5.41,5.41,0,0,1-2.68-1.21s6.83.5,9.44-2.07a20.8,20.8,0,0,1,1,3.3,7.86,7.86,0,0,1,.13,2.42,2.65,2.65,0,0,0,.89-1.91A15.08,15.08,0,0,1,45.47,29.12Z"/></clipPath><clipPath id="clip-path-3" transform="translate(0 0)"><path class="cls-1" d="M19.36,23l-.81,1.6c-1.29,4.11-1.48,14.09-2.48,17.73-1.17,4.3-2.44,18.55-2,28.33,0,0-.93,3-2.53-.08C11.37,70.28,6,52.41,6,48.87S4.34,22.14,4.09,19.52a.85.85,0,0,1,.09-.44c.34-1.47,1.91-6.48,8.26-12.55C20-.72,18.85-.3,22.56.29S29,.77,32.6,3.4s10.54,4,12.14,16.46Z"/></clipPath><linearGradient id="linear-gradient-2" x1="469.63" y1="50.58" x2="464.56" y2="41.33" xlink:href="#linear-gradient"/><linearGradient id="linear-gradient-3" x1="452.44" y1="63.67" x2="464" y2="70.33" xlink:href="#linear-gradient"/><linearGradient id="linear-gradient-4" x1="468.73" y1="73.4" x2="468.15" y2="58.82" xlink:href="#linear-gradient"/><linearGradient id="linear-gradient-5" x1="487" y1="85.36" x2="481.96" y2="92.08" xlink:href="#linear-gradient"/><linearGradient id="linear-gradient-6" x1="468.6" y1="19.3" x2="459.21" y2="50.21" xlink:href="#linear-gradient"/></defs><title>Asset 13</title><g id="Layer_2" data-name="Layer 2"><g id="Layer_1-2" data-name="Layer 1"><rect class="cls-2" x="17.44" y="25.11" width="110.04" height="53.65"/><rect class="cls-3" x="124.52" y="31.11" width="6.33" height="42.46"/><path class="cls-4" d="M126.48,70c-.67,0-.94-.66-.94-1.3a1.42,1.42,0,0,1,.6-1.26l-.06-.15a1.55,1.55,0,0,0-.69,1.41c0,.72.35,1.43,1.09,1.46s1.12-.78,1.26-1.45.38-1.41,1.18-1.35a1.21,1.21,0,0,1,1,1.33,1.64,1.64,0,0,1-.64,1.36l.06.15A1.74,1.74,0,0,0,130,68.7a1.38,1.38,0,0,0-1.12-1.53c-.88-.06-1.19.74-1.33,1.49S127.16,70,126.48,70Zm-1-4.3v.16H130v-.16Zm0-1.82v.25H130V64h-4.32L130,61.29V61h-4.53v.16h4.38Zm3.33-4.34c.83,0,1.26-.8,1.26-1.58a1.66,1.66,0,0,0-.66-1.43l-.07.14a1.51,1.51,0,0,1,.57,1.29c0,.7-.36,1.42-1.1,1.42h-2.13c-.74,0-1.11-.72-1.11-1.42a1.5,1.5,0,0,1,.6-1.29l-.1-.14a1.63,1.63,0,0,0-.65,1.41c0,.79.43,1.6,1.26,1.6Zm-3.17-4.38V52.62h-.16v2.69H130V52.62h-.16v2.53h-2V52.81h-.17v2.34Zm-.07-6.55c0-.75.48-1.23,1-1.23a1.52,1.52,0,0,1,1,.5l2.28,2.18L130,50V47.2h-.16v2.61l-2.15-2.06a1.7,1.7,0,0,0-1.09-.55,1.27,1.27,0,0,0-1.19,1.39,1.33,1.33,0,0,0,.75,1.36l.06-.13a1.27,1.27,0,0,1-.66-1.22Zm4.5-4.17c0-.72-.38-1.52-1.21-1.52H126.6c-.84,0-1.21.8-1.21,1.52S125.76,46,126.6,46h2.23c.83,0,1.21-.81,1.21-1.53ZM126.6,45.8c-.79,0-1.06-.74-1.06-1.37s.27-1.36,1.06-1.36h2.23c.78,0,1,.74,1,1.36s-.27,1.37-1,1.37ZM130,40c0-.71-.38-1.52-1.21-1.52H126.6c-.84,0-1.21.81-1.21,1.52s.37,1.53,1.21,1.53h2.23c.83,0,1.21-.8,1.21-1.53Zm-3.44,1.37c-.79,0-1.06-.74-1.06-1.37s.27-1.36,1.06-1.36h2.23c.78,0,1,.74,1,1.36s-.27,1.37-1,1.37ZM130,35.66c0-.72-.38-1.53-1.21-1.53H126.6c-.84,0-1.21.81-1.21,1.53s.37,1.53,1.21,1.53h2.23c.83,0,1.21-.81,1.21-1.53ZM126.6,37c-.79,0-1.06-.75-1.06-1.37s.27-1.36,1.06-1.36h2.23c.78,0,1,.74,1,1.36s-.27,1.37-1,1.37Z" transform="translate(0 0)"/><path class="cls-5" d="M126.48,70c-.67,0-.94-.66-.94-1.3a1.42,1.42,0,0,1,.6-1.26l-.06-.15a1.55,1.55,0,0,0-.69,1.41c0,.72.35,1.43,1.09,1.46s1.12-.78,1.26-1.45.38-1.41,1.18-1.35a1.21,1.21,0,0,1,1,1.33,1.64,1.64,0,0,1-.64,1.36l.06.15A1.74,1.74,0,0,0,130,68.7a1.38,1.38,0,0,0-1.12-1.53c-.88-.06-1.19.74-1.33,1.49S127.16,70,126.48,70Zm-1-4.3v.16H130v-.16Zm0-1.82v.25H130V64h-4.32L130,61.29V61h-4.53v.16h4.38Zm3.33-4.34c.83,0,1.26-.8,1.26-1.58a1.66,1.66,0,0,0-.66-1.43l-.07.14a1.51,1.51,0,0,1,.57,1.29c0,.7-.36,1.42-1.1,1.42h-2.13c-.74,0-1.11-.72-1.11-1.42a1.5,1.5,0,0,1,.6-1.29l-.1-.14a1.63,1.63,0,0,0-.65,1.41c0,.79.43,1.6,1.26,1.6Zm-3.17-4.38V52.62h-.16v2.69H130V52.62h-.16v2.53h-2V52.81h-.17v2.34Zm-.07-6.55c0-.75.48-1.23,1-1.23a1.52,1.52,0,0,1,1,.5l2.28,2.18L130,50V47.2h-.16v2.61l-2.15-2.06a1.7,1.7,0,0,0-1.09-.55,1.27,1.27,0,0,0-1.19,1.39,1.33,1.33,0,0,0,.75,1.36l.06-.13a1.27,1.27,0,0,1-.66-1.22Zm4.5-4.17c0-.72-.38-1.52-1.21-1.52H126.6c-.84,0-1.21.8-1.21,1.52S125.76,46,126.6,46h2.23c.83,0,1.21-.81,1.21-1.53ZM126.6,45.8c-.79,0-1.06-.74-1.06-1.37s.27-1.36,1.06-1.36h2.23c.78,0,1,.74,1,1.36s-.27,1.37-1,1.37ZM130,40c0-.71-.38-1.52-1.21-1.52H126.6c-.84,0-1.21.81-1.21,1.52s.37,1.53,1.21,1.53h2.23c.83,0,1.21-.8,1.21-1.53Zm-3.44,1.37c-.79,0-1.06-.74-1.06-1.37s.27-1.36,1.06-1.36h2.23c.78,0,1,.74,1,1.36s-.27,1.37-1,1.37ZM130,35.66c0-.72-.38-1.53-1.21-1.53H126.6c-.84,0-1.21.81-1.21,1.53s.37,1.53,1.21,1.53h2.23c.83,0,1.21-.81,1.21-1.53ZM126.6,37c-.79,0-1.06-.75-1.06-1.37s.27-1.36,1.06-1.36h2.23c.78,0,1,.74,1,1.36s-.27,1.37-1,1.37Z" transform="translate(0 0)"/><path class="cls-4" d="M53.61,47.09h3V43.66l-.2-2.4.08,0,1.6,4.09h2.07l1.57-4.09.1,0-.19,2.4v3.43h3V35.18h-3L59.13,41l-2.51-5.82h-3Zm20.18,0h3V35.18H74.06l-3,5.07-1,2.13-.07,0s.24-1.78.26-1.78v-5.4h-3V47.09H70l2.86-4.69L74,40.08h.09s-.29,2.24-.31,2.24Zm5.55,0h3V43.61h1.77a4.22,4.22,0,1,0,0-8.43H79.34Zm3-6.15V38H84.1c1.81,0,1.81,3,0,2.95ZM26.22,67.29h3V63.85l-.2-2.4.08,0,1.6,4.09h2.07l1.57-4.09.1,0-.19,2.4,0,3.44h3V55.37h-3L31.74,61.2l-2.51-5.83h-3ZM45.64,55.37H42.9L38.74,67.29H42l.74-2.39h3.18l.78,2.39H49.9Zm-2.25,6.85.87-3.48h.09l.82,3.48Zm16.59-4V55.35H50.61v2.87h3.16v9.07h3V58.22Zm1.81,9.07h3V63.8h1.77a4.22,4.22,0,1,0,0-8.43H61.79Zm3-6.16v-3h1.75c1.82,0,1.82,3,0,3Zm13.87-5.76H75.93L71.78,67.29H75l.74-2.39h3.18l.77,2.39h3.23Zm-2.25,6.85.88-3.48h.08l.82,3.48Zm14,1.35c-.65,1.65-3.34,1.24-3.34-.19v-4.1c0-1.48,2.66-1.82,3.46-.34L93,58a4.42,4.42,0,0,0-4.19-2.75c-2.39,0-4.75,1.38-4.75,4.08v4.1c0,2.71,2.36,4.07,4.7,4.07a4.79,4.79,0,0,0,4.29-2.67Zm4.07-.2c0,2.72,2.47,4.08,4.94,4.08s4.94-1.36,4.94-4.08V59.29c0-2.72-2.48-4.09-5-4.09s-4.93,1.35-4.93,4.09Zm3-4.08c0-.87.94-1.34,1.88-1.34s2,.42,2,1.34v4.08c0,.86-1,1.29-1.92,1.29s-1.93-.42-1.93-1.29ZM115.24,59c.07-2.27-1.59-3.64-3.87-3.64h-4.78V67.29h4.87c2.64,0,3.94-1.16,4.23-3.08A3,3,0,0,0,114,60.94,2.37,2.37,0,0,0,115.24,59Zm-5.62,1V57.92h1.75a1.06,1.06,0,1,1,0,2.11Zm0,4.61V62.21h1.75a1.22,1.22,0,1,1,0,2.43Z" transform="translate(0 0)"/><g id="OBJECTS"><path class="cls-6" d="M15.73,24l14.5,3,14.51-7.09C43.14,7.38,36.22,6,32.6,3.41S26.27.88,22.56.29,20-.71,12.44,6.53s-8.35,13-8.35,13l2.53,2.62Z" transform="translate(0 0)"/><g class="cls-7"><path class="cls-8" d="M23.74,9.49c-.67,13.24,8.77,13.32,8.1,13.74s-7.59,1.1-7.59,1.1l-5.57-1.86Z" transform="translate(0 0)"/><path class="cls-9" d="M22.37,24.38l17.05-.74,8.16-4.34s-3.18-6.38-3-3.13S34.21,19,34.21,19a2.13,2.13,0,0,0,1.43,1.6c-1.26.49-7.19.38-7.19.38s.69-2.06-1.71-.63-7.18,1.43-7.18,1.43Z" transform="translate(0 0)"/></g><path class="cls-3" d="M8.74,69.41a8,8,0,0,1,3.45-1.22c.89,0,.38-.67.38-.67a4.76,4.76,0,0,1,3.69,1.7c.78.71.77,0,1.38.74a5,5,0,0,1,.46,2.68c.32-.32.12-1.41.12-1.41a5.41,5.41,0,0,1-.12,4.08,2.35,2.35,0,0,0,.67-.55c-.23.57-1.22,2.38-2.41,2.86s-.61.81-.61.81a4.49,4.49,0,0,1-2.83.19c-1.15-.19-1,.29-1,.29A4.07,4.07,0,0,1,10.22,78a2.76,2.76,0,0,1-1.57-.7s.29-.74-.16-1.15-.38.06-.38.06a5.68,5.68,0,0,1-.55-3.53c0-.17.71-1.7.71-1.7A1.72,1.72,0,0,0,8.74,69.41Z" transform="translate(0 0)"/><path class="cls-10" d="M18.74,74.78c-.22.56-1.21,2.38-2.41,2.86s-.61.8-.61.8a4.4,4.4,0,0,1-2.82.19c-1.16-.19-1,.29-1,.29a3.91,3.91,0,0,1-1.7-.86,2.76,2.76,0,0,1-1.58-.71,1.37,1.37,0,0,0,0-.85,1.55,1.55,0,0,0,.89.26,3.63,3.63,0,0,0,1.53.77s-.14-.43.89-.26a4,4,0,0,0,2.52-.17s-.52-.29.54-.72a5.26,5.26,0,0,0,2.15-2.55,2,2,0,0,1-.6.49,4.83,4.83,0,0,0,.11-3.64s.17,1-.11,1.26a4.39,4.39,0,0,0-.38-2.38c-.55-.68-.55,0-1.24-.65a5,5,0,0,0-2-1.37,4.74,4.74,0,0,1,3.34,1.7c.77.7.77,0,1.38.73a5,5,0,0,1,.45,2.68c.32-.32.13-1.41.13-1.41a5.39,5.39,0,0,1-.13,4.08A2.22,2.22,0,0,0,18.74,74.78Z" transform="translate(0 0)"/><path class="cls-3" d="M45.47,29.12c-1.68,3.71-10.74,4.18-10.74,4.18a6.3,6.3,0,0,0,1.85-1.48s-8.37,3.73-16.46,2.44a3.28,3.28,0,0,0,1.68-1,6.25,6.25,0,0,1-4.44.91s1.75-.23,2.17-1a26.09,26.09,0,0,1-10-.63l.17.38a1.4,1.4,0,0,1-.57-.56l-.33-.12a12.47,12.47,0,0,1-1.89-.87,2.2,2.2,0,0,1-.75-2.25A2,2,0,0,0,7,30.36s-2.34-5.21-2.5-7.74c0,0,.34,1.57,1,.77,0,0-1.13-3.91.87-5.78,0,0,.25,2.39,4.14,3.16a24.25,24.25,0,0,0,8.29-.16,2.74,2.74,0,0,1-2.33,1.67,10.1,10.1,0,0,0,5-2.11s.22.78-1.36,1.79c0,0,6.11-.32,8.14-1.7a.9.9,0,0,1-.47,1s6.71.61,9.9-.63a5.41,5.41,0,0,1-2.68-1.21s6.83.5,9.44-2.07a20.8,20.8,0,0,1,1,3.3,7.86,7.86,0,0,1,.13,2.42,2.65,2.65,0,0,0,.89-1.91A15.08,15.08,0,0,1,45.47,29.12Z" transform="translate(0 0)"/><g class="cls-11"><path class="cls-10" d="M52.58,11.87l-.7,6.8,3.28,13.1-9.52,10.3-17.4,4.37-5.3,1.09c-5.3,1.09-13.11-7.64-13.11-7.64L0,31.92l4.55-6.23a2.19,2.19,0,0,0,.75,2.25,12.12,12.12,0,0,0,1.9.88l.33.12c.13.2.49.38.39.13a25.75,25.75,0,0,0,10,.66c-.42.81-2.17,1-2.17,1a6.3,6.3,0,0,0,4.44-.91,3.42,3.42,0,0,1-1.69,1C26.65,32.11,35,28.37,35,28.37a6.45,6.45,0,0,1-1.84,1.49s9.09-.46,10.75-4.18a15.22,15.22,0,0,0,.9-7.95,2.65,2.65,0,0,1-.9,1.92,7.56,7.56,0,0,0-.13-2.42,19.36,19.36,0,0,0-1-3.32Z" transform="translate(0 0)"/></g><g class="cls-12"><path class="cls-6" d="M14.05,70.62c-.42-9.77.85-24,2-28.33S17.35,24.83,19.36,23,26,6.45,23.57,6.37,3.84,16.91,4.09,19.52,6,45.33,6,48.87s5.43,21.41,5.57,21.68C13.12,73.58,14,70.63,14.05,70.62Z" transform="translate(0 0)"/><path class="cls-13" d="M17.48,48.13c-3.87,1.21-1.52,5.32-3.87,7.07s-2.38-6,.45-8.9,3-7.53,3.06-7.83C17.12,38.47,21.36,46.91,17.48,48.13Z" transform="translate(0 0)"/><path class="cls-14" d="M4,33.69C3.51,18.54,10,16.33,8.15,15.8s-4.72,3.88-4.79,4.11C3.36,19.91,4.57,48.83,4,33.69Z" transform="translate(0 0)"/><path class="cls-15" d="M21.15,25.28c-4.41.74-4.25,4.41-6.08,8.42S8.53,36,10.73,31s8.63-8,8.63-8a11.64,11.64,0,0,0,1.41,2.09S25.56,24.53,21.15,25.28Z" transform="translate(0 0)"/><path class="cls-16" d="M34.84,1.89a48.32,48.32,0,0,0-7,.69c-2.21.53-3.73,2.5,3,2S42.53,9.8,42.53,9.8" transform="translate(0 0)"/><path class="cls-17" d="M4.57,53.07l3.5,14.6L12,72.84,17.64,70l1.54-10.23L16,53C11.73,64.7,5,48.2,4.88,47.82Z" transform="translate(0 0)"/></g></g></g></g></svg>