<svg xmlns="http://www.w3.org/2000/svg" xmlns:xlink="http://www.w3.org/1999/xlink" viewBox="0 0 443.21 413.63"><defs><style>.cls-1,.cls-53{fill:none;}.cls-2{isolation:isolate;}.cls-3{fill:#808285;}.cls-3,.cls-57,.cls-58{opacity:0.3;}.cls-3,.cls-57,.cls-96{mix-blend-mode:multiply;}.cls-4{fill:#612418;}.cls-5{fill:#31241c;opacity:0.4;}.cls-6{fill:#9fd4b2;}.cls-7{fill:#026028;}.cls-8{fill:#028226;}.cls-9{fill:#009549;}.cls-10,.cls-11,.cls-32,.cls-46{opacity:0.5;}.cls-12{fill:#0d3842;}.cls-13{fill:#039325;}.cls-14{opacity:0;}.cls-15{fill:#dc312d;}.cls-16{fill:#ef4b48;}.cls-17{fill:#f59592;}.cls-17,.cls-21{mix-blend-mode:screen;}.cls-18{fill:#ee4149;}.cls-19{fill:#326732;}.cls-20{fill:#a31e22;}.cls-21,.cls-30,.cls-58,.cls-70,.cls-97{fill:#fff;}.cls-22{fill:#c82027;}.cls-23{fill:#fcdc52;}.cls-24{fill:#fbb11c;}.cls-25{fill:#fdee7e;}.cls-26{fill:#f7cf34;}.cls-27,.cls-96{fill:#221f1f;}.cls-28{fill:#e8b628;}.cls-29{fill:#f9dc00;}.cls-31{fill:#65d34a;}.cls-32{fill:#319f48;}.cls-33{fill:#58ab46;}.cls-34{fill:#1c1d1e;}.cls-35{fill:#e1213a;}.cls-36{fill:#bb2227;}.cls-37{fill:#c52627;}.cls-38{fill:#ebbf34;}.cls-39{fill:#fabe59;}.cls-40{fill:#f8d87c;}.cls-41{fill:#fcebdf;}.cls-42{fill:#cf9c2b;}.cls-43{fill:#f4d047;}.cls-44{fill:#faf0db;}.cls-45{fill:#007f4a;}.cls-46{fill:#03593c;}.cls-47{fill:#44342b;}.cls-48{fill:#b62025;}.cls-49{fill:#d32027;}.cls-50{fill:#d61f27;}.cls-51{fill:#cc2027;}.cls-52{fill:#a81f23;}.cls-53{stroke:#080d0f;stroke-linecap:round;stroke-miterlimit:10;stroke-width:0.46px;}.cls-54{fill:#d61f28;}.cls-55{fill:#c02026;}.cls-56{clip-path:url(#clip-path);}.cls-57{fill:#998586;}.cls-59{clip-path:url(#clip-path-2);}.cls-60{clip-path:url(#clip-path-3);}.cls-61{clip-path:url(#clip-path-4);}.cls-62{clip-path:url(#clip-path-5);}.cls-63{clip-path:url(#clip-path-6);}.cls-64{fill:#d3e8f2;}.cls-65{fill:#f1f2f2;}.cls-66,.cls-76{fill:#231f20;}.cls-67{fill:#a7a9ac;}.cls-67,.cls-70{mix-blend-mode:overlay;}.cls-68{fill:#3f3f3f;}.cls-69{fill:#e01928;}.cls-71{fill:#ea520f;}.cls-72{fill:#c6400c;}.cls-73{fill:#58595b;}.cls-74{fill:#3c2415;}.cls-75{fill:#b71528;}.cls-76{opacity:0.2;}.cls-77{fill:#2b69b2;}.cls-78{fill:#1f56a8;}.cls-79{fill:#f2312b;}.cls-80{fill:#ce2e27;}.cls-81{fill:#2db3e8;}.cls-82{fill:#2586d6;}.cls-83{fill:#229ed8;}.cls-84{fill:#a51313;}.cls-85{fill:#b21f1b;}.cls-86{fill:#fdc60b;}.cls-87{fill:#efb30c;}.cls-88{fill:#ffef7e;}.cls-89{fill:#ffeb31;}.cls-90{fill:#fc7e9c;}.cls-91{fill:#f96495;}.cls-92{fill:#ffb2c0;}.cls-93{fill:#ff9cb0;}.cls-94{fill:#ce2127;}.cls-95{fill:#fffbe7;}.cls-96{opacity:0.18;}.cls-97{opacity:0.28;}</style><clipPath id="clip-path"><path class="cls-1" d="M326,273.22A8.16,8.16,0,1,0,331.44,263,8.17,8.17,0,0,0,326,273.22Z"/></clipPath><clipPath id="clip-path-2"><path class="cls-1" d="M183.36,192.56a8.16,8.16,0,1,0,5.41-10.18A8.15,8.15,0,0,0,183.36,192.56Z"/></clipPath><clipPath id="clip-path-3"><path class="cls-1" d="M251,126a8.16,8.16,0,1,0,5.42-10.18A8.16,8.16,0,0,0,251,126Z"/></clipPath><clipPath id="clip-path-4"><path class="cls-1" d="M190.07,90.92a8.16,8.16,0,1,0,5.42-10.18A8.15,8.15,0,0,0,190.07,90.92Z"/></clipPath><clipPath id="clip-path-5"><path class="cls-1" d="M124.86,263.57a8.16,8.16,0,1,0,5.42-10.18A8.16,8.16,0,0,0,124.86,263.57Z"/></clipPath><clipPath id="clip-path-6"><path class="cls-1" d="M232.92,253.93a8.16,8.16,0,1,0,5.41-10.17A8.15,8.15,0,0,0,232.92,253.93Z"/></clipPath></defs><title>Asset 121</title><g class="cls-2"><g id="Layer_2" data-name="Layer 2"><g id="Objects"><path class="cls-3" d="M286.15,337.89c0,6.49-28.13,11.75-62.83,11.75s-62.82-5.26-62.82-11.75,28.13-11.76,62.82-11.76S286.15,331.4,286.15,337.89Z"/><path class="cls-4" d="M233,332.52a6.68,6.68,0,0,1-6.67,6.68h-4.64a6.68,6.68,0,0,1-6.67-6.68v-33a6.67,6.67,0,0,1,6.67-6.67h4.64a6.67,6.67,0,0,1,6.67,6.67Z"/><path class="cls-5" d="M226.36,292.87h-2.54c4.13,1.05,3.62,11.09,3.83,21.71.23,11.54.8,23.73-3.94,24.62h2.65a6.68,6.68,0,0,0,6.67-6.68v-33A6.67,6.67,0,0,0,226.36,292.87Z"/><path class="cls-6" d="M192.87,77.8c.77-1.94.9-.59,1.7-2.69a73,73,0,0,0,3.06-10.56c.19-.87,7.28.7,7.51-.07,5.9-20.76,16.72-9.61,16.72-9.61S234.53,37.14,239.79,68c.31,1.8,5.48-2.27,6-.59.13.46.27.91.42,1.36.7,2.11,3.23,3,3.44,5.1,1.81,17,35,35.37,35,35.37a12.24,12.24,0,0,1-.46,1.28c-.11.26-.23.51-.36.77L162.46,109.5c0-.14,0-.22,0-.22C173.18,107.29,186.52,93.79,192.87,77.8Z"/><path class="cls-6" d="M132.89,148.36c1.72-.73,41.79-10.57,47.64-26.59,1.71-4.69,6.74-11.83,10.56-13a22.84,22.84,0,0,1,2.47-.62,52.63,52.63,0,0,1,12.23-.67c15.84.68,36.11,5.72,45.59,8.3,3.33.91,7.74-.81,7.74-.81.85,10.72,24.81,32.06,37.36,37.32,1.33.54,13.13,3.1,14.53,3.61L132.79,148.4Z"/><path class="cls-6" d="M116.09,268.84h.5c-2.5,3.86,7.08-7.48,12.29-5.31,2.78,1.16-4.62,16.49-.42,14.19-1.55,5.58,13.27-7.8,17.76-6.17,5,1.82-4.38,18.46,0,15.69-1.76,5.4,7.93-7.27,12.91-6.25,6.55,1.35,1.86,15.1,5.16,9.84-1.73,9.29.53,15,7.83,16.24,5.46.95,10.11-2.43,13.78-8.3,0,.25.05.5.08.74.56,4.53,2.75,8,7.63,8.47,4.2.41,7.56-2.93,9.85-7.52,1.78,7.92,6,12.9,14,11.7,6.3-1,8.93-6.29,9.74-13.26,2.21,7.19,6.46,11.3,14,10.45,6.17-.68,9-6.17,10-13.1,9.17,15.48,16.93,12.2,18.37,1.79a64.67,64.67,0,0,0-.55-11.58c9.33,8.59,16.6,6.83,16.6-2.55,0-.45,4.77,1,4.72.48,4.93,6.43,10.38,9.75,15.72,7.55,4.32-1.77-3.76-8.61-6.27-15.53,6,4.79,20.2,11.64,26.53,4.7a7.63,7.63,0,0,0,1.7-8.34c11.09-.78,14-3.86,16.21-15.13.31-1.61-56.79-14.67-63.33-38.91a34.15,34.15,0,0,1-5-11.52c-4.32-19.52-31.82-6.41-56,9.59-22.29-14.09-45.95-23.79-51.2-6.08-.36,1.25-2.79,1.23-3.27,2.4,2.42,31-61.31,42.06-61.31,42.06S101.48,268.26,116.09,268.84Z"/><path class="cls-6" d="M164.09,171.83c1.42-1.46,1.68,2.18,2.85.66,3.67-4.73,6-9.76,6.35-15,.21-3.64,2.83-6.14,7-7.8,20.21-8.07,79.41,3.54,79.41,3.54.15,2.52.83,3.92,2.12,6.7,11.32,24.47,49.74,47.44,68,51.12a9.36,9.36,0,0,1-1.16,3.45c-1.74,3.11-6.05,7.06-16.59,6,1.54,3.2,1.52,6-1.27,7.63-8,4.72-15.88,1.42-21.85-3.54.67,5.06-.71,9.19-6,10.62-7.64,2.08-14.06-2.33-18.79-8.46a13.82,13.82,0,0,1-3.53,10.57c-6.57,7.13-14.44,3.26-19.37-4.1a7.58,7.58,0,0,1-4.83,4.1c-4.48,1.05-7.63-1-9.8-3.81-1.77,6.55-5.3,11.82-11.5,11.93-7.7.15-11.11-4.64-12.29-10.84-2.92,4.78-7.23,8.42-13.44,8.61-7.56.23-10.51-3.57-11.25-8.65,0-.1,0-.19,0-.29-3.93,4.65-9.49,7.6-17.48,6.35-6.13-1-7.19-6.36-5.8-12.76a25.77,25.77,0,0,1-13.06,8.36c-16,4.62-18.39-7.19-14.13-14-6.8.92-24,3.32-27.22-7.35C100.39,215,151.43,196.86,164.09,171.83Z"/><path class="cls-7" d="M97.07,271.18h.6c-3,4-5.22,9.33.93,11.56,3.27,1.2,8.11,0,13.06-2.39-1.83,5.76-1.31,10.76,4,12.44,5.9,1.88,11.79.25,17-2.6-2.09,5.57-1.77,10.3,4.11,11.36,7.72,1.4,13.3-2.22,17.19-7.65-2,9.59.62,15.45,9.23,16.76,6.43,1,11.92-2.51,16.24-8.57l.09.77c.67,4.68,3.26,8.25,9,8.75,5,.42,8.92-3,11.61-7.77,2.1,8.18,7.06,13.33,16.52,12.08,7.43-1,10.53-6.49,11.49-13.7,2.61,7.43,7.61,11.68,16.5,10.81,7.27-.71,10.59-6.39,11.75-13.54,10.8,16,25.79,13,27.49,2.29a25.77,25.77,0,0,0-.3-8c11,8.87,19,4.65,19-5,0-.46,0-1-.08-1.49,5.81,6.63,12.24,10.06,18.53,7.8,5.09-1.84,5.66-7.48,2.71-14.63,7.11,5,14.82,6.18,19.23,2.11,2.72-2.49,2.93-5.73,1.62-9.19,13.07-.8,16.39-7.91,17.2-12a11.27,11.27,0,0,0,.25-2.93h0a216.81,216.81,0,0,1-32.87-9,149.48,149.48,0,0,1-15.55-6.65c-8.8-4.41-16.89-9.86-22.27-16.46a30,30,0,0,1-5.91-11c-5.09-18.74-37.52-6.16-66,9.2-26.28-13.52-54.17-22.84-60.36-5.84a29.9,29.9,0,0,1-1.5,3.48c-7,14.05-23.29,22.18-38.86,26.86-1.28.37-2.55.74-3.8,1.08a165.73,165.73,0,0,1-32,5.17S79.85,270.58,97.07,271.18Z"/><path class="cls-8" d="M173.7,276.84a11.52,11.52,0,0,0,2.25,3.05c2,3.49,6,5.92,11.63,5.09,4.62-.69,8.11-3.51,10.61-6.26.28-.3.55-.61.82-.93.34,6,.94,12.74,4.93,18a12.79,12.79,0,0,0,10.64,5.05,19.2,19.2,0,0,0,14.28-7.73c4.89-6.85,6.07-14.75,5.66-22.57l.65,1.2c2.23,4,5.08,9.09,10.66,11.13,4,1.47,8.19,1.59,11.39-1.12a16,16,0,0,0,4.62-6,20.73,20.73,0,0,0,1.53-6.43c1.47,2.23,2.87,4.48,4.55,6.62,2.44,3.12,5.74,6.94,10.37,8.49,6,2,12.25,1.12,16.28-2.85,3-3,3.37-7.33,2.78-10.91a32,32,0,0,0-1.52-5.72c5.62,4.26,13.52,8.28,21.56,8.72a22,22,0,0,0,5.88-.3c7-1.45,9.26-6.9,7.9-11.69a18,18,0,0,0-3.34-6.16l1.88.63a77,77,0,0,0,24,3.79c.63,0,1.28,0,1.95-.05a2.71,2.71,0,0,0,.41.09,34.18,34.18,0,0,0,5.73,1.3,11.27,11.27,0,0,0,.25-2.93h0a216.19,216.19,0,0,1-32.87-9,147.27,147.27,0,0,1-15.55-6.64c-8.8-4.41-16.89-9.86-22.27-16.46a7,7,0,0,0-1.94,3.27,6.72,6.72,0,0,0-2.46,1,23.66,23.66,0,0,0-4.74-1.3c-3.53-.58-6.23.68-7.37,2.67l-1.22-1.37a7.43,7.43,0,0,0-6.62-2.05,14.18,14.18,0,0,0-4.19-1.25,10.66,10.66,0,0,0-3.45.07,6.85,6.85,0,0,0-4.85-1.66h-1.16c-3,0-5,1.35-5.92,3.18A7.83,7.83,0,0,0,244,230.2,13.22,13.22,0,0,0,232,227.28a11.59,11.59,0,0,0-8.32,7.52,6.7,6.7,0,0,0-5-2.05c-.1-.53-.23-1.06-.38-1.57a10.51,10.51,0,0,0-10.13-6.8,7.35,7.35,0,0,0-8.21.35c-1.14.87-2.26,1.75-3.34,2.65-9.66,8.11-18.41,18-21.65,28.68a58.94,58.94,0,0,0-2.14,10.06C172.36,269.56,172,273.55,173.7,276.84Z"/><path class="cls-9" d="M135,249.46a52.68,52.68,0,0,1,8.88-12.18c4.17-7.34,9.8-15,19.35-19.88a19.24,19.24,0,0,1,7.58-3.09c3.51-1.85,8.62-2.27,12.56.54,5.48,3.91,7,8.74,7.09,13.84a45.26,45.26,0,0,1-1.86,15.09c-2.84,8.78-9.89,17.8-20.59,23.84a33.11,33.11,0,0,1-21.14,4.2c-6.66-.92-11.69-5-12.81-9a11.06,11.06,0,0,1-.32-1.58C132.41,257.26,133.53,252.51,135,249.46Z"/><g class="cls-10"><path d="M118.68,248.93a17.51,17.51,0,0,0,3.25,1.59,19.63,19.63,0,0,0,2.13.68,24.41,24.41,0,0,0,4.56.78c1,.07,2,.11,3,.11a47.25,47.25,0,0,0,7-.58A43.63,43.63,0,0,0,145,250c.71-.22,1.41-.47,2.09-.73.08.26.16.52.25.76a11.11,11.11,0,0,0,8.13,6.88,28.31,28.31,0,0,0,5.48.84,24.12,24.12,0,0,0,11.68-2.13c.38-.18.77-.37,1.15-.57s.69-.38,1-.58c.12.15.24.3.38.45s.2.24.31.35a15,15,0,0,0,3.62,2.75,26.14,26.14,0,0,0,9.78,2.86l.75.07.74,0,.63,0a21.3,21.3,0,0,0,13.11-3.94l.62-.44a16.12,16.12,0,0,0,7.56,5.42,25,25,0,0,0,6.93,1.47c.69.05,1.39.08,2.09.08h.52c7.65-.09,13.65-4,16.48-9.06a19.89,19.89,0,0,0,5.34.72h.41c.32,0,.65,0,1,0a24.16,24.16,0,0,0,3.42-.46,15.57,15.57,0,0,0,3.3-1.08h0a22.89,22.89,0,0,0,13.54,5c.46,0,.93,0,1.39,0,.65,0,1.35-.08,2.1-.18a20.11,20.11,0,0,0,11.05-5.32c.18-.17.35-.35.52-.52a15.8,15.8,0,0,0,2.79-3.76,27.16,27.16,0,0,0,14.49,3.08,28.09,28.09,0,0,0,6.12-1.09c4.71-1.38,7.95-3.88,9.37-7.18a9.37,9.37,0,0,0,.38-1.05c-13.3-6.67-25-15.71-28.18-27.5-5.09-18.73-37.52-6.16-66,9.2-26.27-13.52-54.16-22.84-60.35-5.83C153.15,234.8,135.49,243.87,118.68,248.93Z"/></g><path class="cls-7" d="M99,215.81c5,10,19.1,9.62,26,8.76-3.54,6.27.24,16.9,15.92,12.78a23.6,23.6,0,0,0,12.55-7.58c-.9,5.82.61,10.67,6.85,11.51,8.11,1.1,13.54-1.52,17.28-5.68a2.38,2.38,0,0,0,.05.26c1,4.55,4.14,7.91,11.71,7.71,6.22-.17,10.47-3.4,13.32-7.68,1.3,5.55,4.79,9.77,12.49,9.64,6.2-.1,9.78-4.75,11.65-10.62a9.56,9.56,0,0,0,9.85,3.42,7.84,7.84,0,0,0,5-3.68c4.73,6.59,12.46,10,19.44,3.68a12.42,12.42,0,0,0,4.2-9.58c4.43,5.59,10.63,9.56,18.52,7.69,5.47-1.29,7.26-5,7.05-9.68,5.63,4.55,10.5,6.93,19.17,2.63,3.06-1.51,3.21-5.82,2-8.8,10.74.95,13.07-.48,15.34-3.41,1.37-1.8,1.51-6.28,1.51-6.28-18.56-3.53-32.19-10.55-45.84-22.1q-2.28-1.94-4.31-3.91c-5.3-5.1-9.34-10.38-11.55-15.41a20.25,20.25,0,0,1-1.92-8.14s-67.21-12.18-89.94-3.68c-4.63,1.73-7.42,4.32-7.42,8,0,5.26-2.27,10.27-6,14.93A46.36,46.36,0,0,1,158,185C138.92,203.61,99,215.81,99,215.81Z"/><path class="cls-8" d="M148.3,198.78a6.41,6.41,0,0,0,6,6.63,17.44,17.44,0,0,0,11.88-3,31.35,31.35,0,0,0-2.69,7.24c-.94,4.05-.64,9.59,5.12,11.63,9.75,3.44,17-3.5,21.25-9.34-.1,3.61.55,7.23,3.5,10.18,1.86,1.85,5,3.49,8.3,2.54a14.23,14.23,0,0,0,9.2-7.56,11.92,11.92,0,0,0,5.7,3.62,10.6,10.6,0,0,0,7.83-.88l.15.32c2.14,4,5.76,9,12.09,9.9,11.85,1.74,15.66-7,13.74-14.33,5,3.43,13.63,6.32,18.13,1.41,1.62-1.76,1.64-4,.89-6.23,1.43.88,3,1.89,4.61,3l1.64.87c4.71,2.43,11.31,5.85,17.22,5.52,9.67-.53,8.91-6.83,4.52-12.32a140.32,140.32,0,0,0,30.39,6.5l.78.05a8.64,8.64,0,0,0,1.26-3.46c-19.81-3.67-41.2-14-56.16-25.43-1.63-1.25-3.2-2.52-4.66-3.78-5.67-4.91-10-9.91-12.54-14.61a103.16,103.16,0,0,0-11.16-1.18c-8.38-.34-16.7.24-25.06.36-8.84.13-17.61.18-26.38,1.14a5.52,5.52,0,0,0-5.09,4.37c-1.36,0-2.73.11-4.1.2-1.25-2.26-4.32-3.22-7.19-2.92a8.89,8.89,0,0,0-2-.23c-2.75,0-6.3,1.45-6.81,3.53s1.47-3.76.71-1.81c-4.17,1.81-3.44,6.83-12.86,15.67C153,189.84,148.71,194.42,148.3,198.78Z"/><path class="cls-11" d="M162.66,181.93a12.39,12.39,0,0,0,6.1,1.43,24.69,24.69,0,0,0,7.16-1.2,28.22,28.22,0,0,0,3.23-1.2,12,12,0,0,0,1.68,5.91c1.61,2.54,4.32,4.11,8,4.66a18.12,18.12,0,0,0,2.52.18c5.12,0,9.38-2.34,12.65-6.93,2.94,5.23,7.73,8,14,8a24.64,24.64,0,0,0,3.92-.34c4.79-.81,8.31-4.07,10.31-9.47a16.06,16.06,0,0,0,13.8,7.16l.83,0c4.25-.17,9.19-1.93,10.06-8.83,5.09,3.92,10,5.92,14.6,5.92a14.37,14.37,0,0,0,6.54-1.54c-1.51-1.25-2.94-2.52-4.29-3.78-8.11-7.63-13.32-15.48-13.72-22.09,0,0-86-15.69-87.19,4-.3,4.88-2.65,9.57-6.32,14A48.84,48.84,0,0,1,162.66,181.93Z"/><path class="cls-7" d="M132.79,148.4c5.47,12.71,18.48,15.75,21.62,16.23a24.11,24.11,0,0,0,5.49.14,9,9,0,0,0,1.74,6c2.26,2.93,6.84,4.48,14.32,2.26.36-.1.72-.22,1.06-.34a24.19,24.19,0,0,0,3.31-1.4c.14,5.42,2.87,9.49,9.73,10.43,6.6.9,11-2.27,14-7,2.14,5,7.66,9.44,17.89,7.84,5.55-.88,8.76-5.58,10.2-11.4,2.6,5.4,7,9.5,14.6,9.21,6.87-.25,9.22-4.72,9.15-10.68,6.33,5.2,13.92,8.31,21.16,4.86,4.49-2.15,5.22-5.89,3.92-10.25h.26A45.35,45.35,0,0,0,311,155.86c-1.4-.51-13.2-3.07-14.53-3.61a94.28,94.28,0,0,1-28.84-18.75,76.31,76.31,0,0,1-10.93-13s-2-.57-5.33-1.44c-9.48-2.45-29.75-7.24-45.59-7.88a55.11,55.11,0,0,0-12.23.63,23,23,0,0,0-2.47.59c-3.82,1.15-6.37,3.12-6.93,6.22-.81,4.41-3.42,8.64-7,12.54-11.52,12.68-42.59,16.45-44.31,17.18Z"/><path class="cls-12" d="M278.59,160a9.81,9.81,0,0,1,3,4.26h.22c14.7,1.49,28.77-8.25,28.77-8.25C304.54,158.65,289.22,162.56,278.59,160Z"/><path class="cls-8" d="M182.7,152.1c2.91,4.18,10.08,6,14.91,2.14.34-.27.67-.55,1-.85a31.67,31.67,0,0,0,1.43,6.13c1.93,5.68,6.52,11.58,15.78,10.42a14.53,14.53,0,0,0,11.64-8.46,17.62,17.62,0,0,0,3.26-8.34,19.1,19.1,0,0,0,9.9,6.35c3.67,1,7.49-1.12,8.58-3.58a1.74,1.74,0,0,0,.11-.25c.21.22.4.45.62.67,2.32,2.45,4.8,5.17,8,7a22.18,22.18,0,0,0,4.92,2.11,16.45,16.45,0,0,0,9.88,2.15c7.24-1.06,7.53-7.65,6-11.82a23.07,23.07,0,0,0-3.58-6.69c6,2.44,15.29,5.49,21.26,3.12a93.91,93.91,0,0,1-28.84-18.74,75.84,75.84,0,0,1-10.93-13s-2-.58-5.33-1.44a7.16,7.16,0,0,0-5.15,2.14,8.17,8.17,0,0,0-6.1-2.58c-3.64,0-6.25,2-6.86,4.42l-.23,0a8.9,8.9,0,0,0-1.3.38c1.28-1.93,1-4.23-1.22-5.9-2.47-1.81-7.06-2.09-9.62-.19-2.14-1.68-6.1-2.52-8.74-1a16.6,16.6,0,0,0-1.43.9,7.68,7.68,0,0,0-3.66-1.85l-.32,0a3.54,3.54,0,0,0-1-4.16c-2.67-2.61-8.8-3.49-11.85.15l-.38.48a45.11,45.11,0,0,0-8.71,17.26,30.18,30.18,0,0,0-1,8.16C181.1,141.85,179.42,147.38,182.7,152.1Zm31.41,2.14-.23.37,0-.12c0-.09,0-.2,0-.3Z"/><path class="cls-11" d="M177.2,131.18c.79,2.91,2.44,5,5.23,5.78,8,2.16,14.6-1.19,19.06-7.1,1.66,3.58,4.95,6.68,11.33,6.06,3.14-.3,5.73-2.14,7.8-4.78,2.46,5.19,6.73,8.75,14,8.11l.39,0A10.94,10.94,0,0,0,239,138a10.43,10.43,0,0,0,2.67-2.08h0a11.81,11.81,0,0,0,1.19-1.51v0a19,19,0,0,0,2.53-6.35,24.64,24.64,0,0,0,3.37,3.66,15.59,15.59,0,0,0,9.89,4.25,16.53,16.53,0,0,0,8.13-2,9,9,0,0,0,.87-.51,75.84,75.84,0,0,1-10.93-13s-69.26-19.83-72.55-1.88C183.35,123.05,180.74,127.28,177.2,131.18Z"/><path class="cls-7" d="M162.45,109.28s0,.08,0,.22c.1,1.88,1.52,15.17,21.88,11.82.43,3.23,2,5.62,5.21,6.31a15.28,15.28,0,0,0,15.28-5.14c1.2,2.79,3.88,5.14,9.84,4.75a9.22,9.22,0,0,0,6.6-3.91c2.1,4,5.7,6.69,11.77,6.07,4.9-.5,7.44-4.07,8.53-8.65,4.46,6,10.89,9.34,18.35,5.7,2.72-1.33,3.67-3.69,3.41-6.6,7.83,1.24,14.48-1.36,18.27-5.41a13.07,13.07,0,0,0,2.22-3.11c.13-.26.25-.51.36-.77a12.24,12.24,0,0,0,.46-1.28s-1.8-.62-4.64-1.9c-1.11-.49-2.39-1.1-3.77-1.8-1.71-.86-3.56-1.88-5.51-3l-.87-.53c-.73-.45-1.47-.92-2.23-1.42l-1-.71c-.44-.29-.86-.6-1.31-.9l-.7-.52c-.1-.06-.18-.13-.27-.19-.25-.2-.51-.39-.78-.58-.07-.07-.17-.13-.25-.2l-.75-.59-.34-.27-.69-.55-.83-.7-.7-.59-.17-.15-.83-.75c-.26-.23-.53-.47-.78-.72s-.5-.46-.72-.7q-1.66-1.6-3.2-3.37a46.16,46.16,0,0,1-5.61-7.94,40.21,40.21,0,0,1-2.47-5.36q-.23-.6-.42-1.2a36.37,36.37,0,0,1-1.2-4.62c-5.27-27.34-22.7-6.51-22.7-6.51s-17.7-12-23.61,6.38c-.22.69-.43,1.41-.62,2.18a59.55,59.55,0,0,1-3.06,9.35A56.94,56.94,0,0,1,192,86.68C184.66,99.73,173.18,107.29,162.45,109.28Z"/><path class="cls-8" d="M162.45,109.28s0,.08,0,.22c3.42,1,40.2-7.59,38.87-24.24-.21-2.61-.74-4.27-3.39-3.78a7.26,7.26,0,0,0-3.38-.11,54.51,54.51,0,0,1-2.6,5.31C184.66,99.73,173.18,107.29,162.45,109.28Z"/><path class="cls-8" d="M201.11,110.44c1.61,2.57,5.48,3.72,9.13,3.3a10.23,10.23,0,0,0,6.81-4.14c.19-.27.38-.54.56-.83a15.06,15.06,0,0,0,7,8.93c5.08,2.78,11.89,1.36,14.47-2.54a12.15,12.15,0,0,0,7.57,4.07c4.66.52,9.71-.94,10.71-4.71a10.58,10.58,0,0,0,.3-3.82,41.7,41.7,0,0,0,15.53,4.39,25.32,25.32,0,0,0,8.39-.65,13.31,13.31,0,0,0,2.21-3.11c.13-.25.25-.51.36-.77a12.24,12.24,0,0,0,.46-1.28s-1.8-.62-4.64-1.9c-1.11-.49-2.39-1.1-3.78-1.8-1.69-.86-3.55-1.88-5.5-3l-.87-.53c-.73-.45-1.48-.92-2.22-1.42-.35-.23-.71-.47-1.05-.71s-.86-.59-1.3-.91c-.24-.16-.47-.33-.71-.51l-.27-.2-.77-.58-.25-.19-.76-.59-.35-.27-.68-.55-.84-.7c-.23-.2-.46-.39-.68-.6l-.18-.14-.83-.74-.78-.73-.73-.7c-1.1-1.07-2.17-2.19-3.2-3.38a45.81,45.81,0,0,1-5.6-7.93c-2.43-.09-4.77,1.74-4.58,3.67-.67-.6-1.34-1.19-2-1.77a4.88,4.88,0,0,0-5.05-.54c-1.43-3.55-8.78-3.4-10.08-.25a5.67,5.67,0,0,0-1.7-1.09l-.35-.36A6.62,6.62,0,0,0,219.71,79a26.24,26.24,0,0,0,.63-5.23c.1-5-10.38-5-10.47,0,0,.11,0,.22,0,.34a3.31,3.31,0,0,0-1.68,2.75,3.07,3.07,0,0,0,.14.92c-3.07,1-4,4.73-1.07,6.61-1.61,3.81-3.62,7.56-5.11,11.4C200.38,100.27,198.31,106,201.11,110.44Z"/><path class="cls-11" d="M196.57,86.68a8.78,8.78,0,0,0,5.17,3.92c4.68,1.47,8.55-.23,11.72-3.6,2.24,4.55,6,8.4,12,6.81,2.75-.74,4.73-3.2,6.09-6.59a17.64,17.64,0,0,0,3.72,3.53,11.13,11.13,0,0,0,6.95,2,12.14,12.14,0,0,0,2.26-.31,7.33,7.33,0,0,0,5-3.41A43.89,43.89,0,0,1,241.19,70c-4.47-27.33-19.26-6.5-19.26-6.5S205.78,50.56,201.39,72A63.86,63.86,0,0,1,196.57,86.68Z"/><path class="cls-13" d="M177.53,68.48c0,6.89,8.36,10.85,16.93,5.88,0,3.79,1.87,6.79,6.79,8a13.1,13.1,0,0,0,12-2.84c2.3,3.6,6.1,6.63,12.24,5.38,2.81-.58,4.82-2.54,6.22-5.21a14.56,14.56,0,0,0,13.21,4.16c5.22-.94,6.77-4.21,6.23-8.47,1.21.08,2.32.14,3.29.16,13.46.31,12.55-6.45,12.55-6.45-11.43-4.89-19.21-10-24.49-15.25l0,0-.17-.17,0,0a5.28,5.28,0,0,0-.41-.41,42.21,42.21,0,0,1-3.42-4A31.68,31.68,0,0,1,236,45.43c-1.18-2.09-9.26-23-12.52-24S209,44.85,208.44,46a42.51,42.51,0,0,1-2.87,5c-.33.48-.66,1-1,1.4l-.44.58a9,9,0,0,0-1.93,2.19c-.1.14-.18.28-.27.43l-.57.61A42.68,42.68,0,0,1,177.53,68.48Z"/><g class="cls-14"><path class="cls-15" d="M246,235.07a11.09,11.09,0,0,0,.53,3.36c1.69,5.34,7.34,9.26,14.05,9.26a16.25,16.25,0,0,0,6.89-1.49,14.53,14.53,0,0,0,3.83-2.57,11.69,11.69,0,0,0,3.86-8.56c0-7-6.53-12.62-14.58-12.62A15.66,15.66,0,0,0,250,226.39,11.75,11.75,0,0,0,246,235.07Z"/><path class="cls-16" d="M250,226.39c5.09,10.63,12.93,14.33,21.3,17.24a11.69,11.69,0,0,0,3.86-8.56c0-7-6.53-12.62-14.58-12.62A15.66,15.66,0,0,0,250,226.39Z"/><path class="cls-17" d="M263.1,224.45a2.51,2.51,0,0,1,1.6-.17,1.61,1.61,0,0,1,1.05.06c1.91.73,4,2.14,4,4.12s-2.45,2.32-4.22,1.8a5.63,5.63,0,0,1-3.85-3.29A2.25,2.25,0,0,1,263.1,224.45Z"/><path class="cls-16" d="M246.49,238.43c1.69,5.34,7.34,9.26,14.05,9.26a16.25,16.25,0,0,0,6.89-1.49A76.76,76.76,0,0,0,246.49,238.43Z"/></g><path class="cls-18" d="M209.79,43.29s0,0,0,0S209.79,43.28,209.79,43.29Z"/><path class="cls-19" d="M300.84,232.55Z"/><path class="cls-20" d="M208.6,45.46S225.78,49.15,236,45c-1.27-3.41-2.95-7.7-3.76-8.51-2-.29-17.11-1.3-19.22-1C210.47,37,208.6,45.46,208.6,45.46Z"/><path class="cls-21" d="M165.51,186.92a4.5,4.5,0,0,1,.49,1,1.61,1.61,0,0,1-.8,2.16,2,2,0,0,1-1.09.22,1.53,1.53,0,0,1-.5-.13,2.14,2.14,0,0,1-.87-.7,2.89,2.89,0,0,1-.33-.52c-.15-.18-.3-.35-.44-.49a3.71,3.71,0,0,0-1.49-.95,2.12,2.12,0,0,0-1.66.16,1.64,1.64,0,0,0-.35.23,2.31,2.31,0,0,0-.54,2.89,3.64,3.64,0,0,0,.37.71l1.2,1.7c.05.07.1.15.16.22l.19.26c.26.39.55.8.87,1.25h0l1.68,2.37,1.23,1.74,1.51,2.14,1.23,1.74,1.64,2.32,1.26,1.78,1.4,2c.46.66.9,1.27,1.29,1.82s.62.87.87,1.24c.54.75.93,1.31,1.14,1.59l.13.18c.59.8-.61,1.82-.61,1.82a1.54,1.54,0,0,1-1.81.18l-.5-.67-.37-.52-1-1.36-.17-.23-.11-.16-1.09-1.51-1.52-2.1-1.26-1.74-1.53-2.12-1.34-1.85h0l-1.51-2.09L160,199.76l-1.54-2.13L158,197a21.77,21.77,0,0,1-1.84-2.31h0c-.15-.22-.29-.44-.41-.65a10.72,10.72,0,0,1-1-2.15h0c-1.21-3.5.7-5.17.7-5.17a12.6,12.6,0,0,1,1.53-1.33,8.36,8.36,0,0,1,1.78-1l.22-.09.12,0,.24-.07a4.78,4.78,0,0,1,3,.06,5.72,5.72,0,0,1,1.54.87,6.65,6.65,0,0,1,.93.88A7,7,0,0,1,165.51,186.92Z"/><path class="cls-22" d="M157.16,185.22c-1.84,1.25-2.36,5.63-2.44,6.64-1.21-3.5.7-5.17.7-5.17a12.6,12.6,0,0,1,1.53-1.33Z"/><path class="cls-22" d="M160.68,184a11.89,11.89,0,0,0-1.86,3.73,1.64,1.64,0,0,0-.35.23,2.31,2.31,0,0,0-.54,2.89,44.75,44.75,0,0,0-.82,5.08l-.93-1.22h0l-.42-.55a.67.67,0,0,1,0-.1c.1-.91,1-8.5,2.9-9.61a1.42,1.42,0,0,1,.29-.13l.12,0A5.32,5.32,0,0,1,160.68,184Z"/><path class="cls-22" d="M160.72,195h0a9,9,0,0,0-.69,4.8l-1.54-2.13c0-.45,0-3.12,1-4.41h0l.16.22.19.26Z"/><path class="cls-22" d="M163.86,185.09c-.36.2-1.27.93-1.89,3.39a3.71,3.71,0,0,0-1.49-.95h0a6.94,6.94,0,0,1,1.85-3.3A5.72,5.72,0,0,1,163.86,185.09Z"/><path class="cls-22" d="M162.4,197.33l1.23,1.74a8.51,8.51,0,0,0-.82,4.53l-1.51-2.09A10.28,10.28,0,0,1,162.4,197.33Z"/><path class="cls-22" d="M166.37,203a9,9,0,0,0-.69,4.62l-1.53-2.12c0-.7.07-3,1-4.24Z"/><path class="cls-22" d="M168,205.27a8.58,8.58,0,0,0-1.07,4l1.52,2.1a8.56,8.56,0,0,1,.81-4.36Z"/><path class="cls-22" d="M170.67,209c.46.66.9,1.27,1.29,1.82a8.86,8.86,0,0,0-.78,4.34l-1.35-1.88-.17-.23A9,9,0,0,1,170.67,209Z"/><path class="cls-22" d="M165.51,186.92s0-.13.21.45c-.63.44-1.05,1.74-1.61,2.95a1.53,1.53,0,0,1-.5-.13,2.14,2.14,0,0,1-.87-.7,13.42,13.42,0,0,1,2-3.52A7,7,0,0,1,165.51,186.92Z"/><path class="cls-21" d="M249.34,96.06a4.35,4.35,0,0,0-.48,1,1.58,1.58,0,0,0,.78,2.13,2.07,2.07,0,0,0,1.08.21,1.41,1.41,0,0,0,.48-.12,2.24,2.24,0,0,0,.86-.69,2.31,2.31,0,0,0,.32-.51,5.23,5.23,0,0,1,.44-.48,3.54,3.54,0,0,1,1.45-.93,2.18,2.18,0,0,1,1.64.14,1.87,1.87,0,0,1,.34.23,2.28,2.28,0,0,1,.53,2.85,4.25,4.25,0,0,1-.36.69l-1.18,1.68-.16.21-.18.26L254,104h0l-1.65,2.33L251.18,108l-1.48,2.1-1.21,1.7c-.54.77-1.08,1.54-1.61,2.28l-1.23,1.75-1.39,2c-.45.65-.87,1.25-1.26,1.79l-.85,1.21L241,122.35l-.13.18c-.58.78.6,1.78.6,1.78a1.54,1.54,0,0,0,1.78.19l.49-.68.36-.5,1-1.34.16-.23.11-.14,1.07-1.49,1.5-2.06,1.23-1.71,1.51-2.09,1.31-1.82h0l1.49-2,1.24-1.73,1.51-2.09.46-.64a20.12,20.12,0,0,0,1.81-2.27h0c.15-.22.28-.43.4-.64a10.66,10.66,0,0,0,1-2.11h0c1.18-3.43-.69-5.09-.69-5.09a15,15,0,0,0-1.5-1.3,8.3,8.3,0,0,0-1.76-1l-.21-.09-.12,0-.23-.07a4.69,4.69,0,0,0-3,.07,5.25,5.25,0,0,0-1.51.85,6.48,6.48,0,0,0-.92.86A6.62,6.62,0,0,0,249.34,96.06Z"/><path class="cls-22" d="M257.54,94.4c1.8,1.22,2.31,5.53,2.4,6.52,1.18-3.43-.69-5.09-.69-5.09a15,15,0,0,0-1.5-1.3Z"/><path class="cls-22" d="M254.08,93.16a11.8,11.8,0,0,1,1.83,3.65,1.87,1.87,0,0,1,.34.23,2.28,2.28,0,0,1,.53,2.85,41.34,41.34,0,0,1,.8,5l.92-1.2h0l.41-.55a.62.62,0,0,0,0-.09c-.09-.9-1-8.35-2.84-9.44a1.88,1.88,0,0,0-.29-.13l-.12,0A5.48,5.48,0,0,0,254.08,93.16Z"/><path class="cls-22" d="M254,104h0a8.81,8.81,0,0,1,.68,4.71l1.51-2.09c0-.43,0-3.06-1-4.32h0l-.16.22-.18.26Z"/><path class="cls-22" d="M251,94.27c.35.2,1.24.91,1.86,3.33a3.54,3.54,0,0,1,1.45-.93h0a6.7,6.7,0,0,0-1.81-3.24A5.25,5.25,0,0,0,251,94.27Z"/><path class="cls-22" d="M252.39,106.29,251.18,108a8.29,8.29,0,0,1,.81,4.44l1.49-2A10.25,10.25,0,0,0,252.39,106.29Z"/><path class="cls-22" d="M248.49,111.8a8.8,8.8,0,0,1,.68,4.55l1.51-2.09c0-.69-.08-3-1-4.16Z"/><path class="cls-22" d="M246.88,114.08a8.45,8.45,0,0,1,1.06,4l-1.5,2.06a8.5,8.5,0,0,0-.79-4.29Z"/><path class="cls-22" d="M244.26,117.78c-.45.65-.87,1.25-1.26,1.79a8.57,8.57,0,0,1,.77,4.25L245.1,122l.16-.23A8.81,8.81,0,0,0,244.26,117.78Z"/><path class="cls-22" d="M249.34,96.06s0-.12-.21.44c.62.44,1,1.72,1.59,2.9a1.41,1.41,0,0,0,.48-.12,2.24,2.24,0,0,0,.86-.69,13,13,0,0,0-2-3.46A6.62,6.62,0,0,0,249.34,96.06Z"/><path class="cls-21" d="M269.19,232.5a3.92,3.92,0,0,0-.49,1,1.6,1.6,0,0,0,.79,2.13,2,2,0,0,0,1.07.21,1.54,1.54,0,0,0,.49-.13,2.12,2.12,0,0,0,.85-.68,2.49,2.49,0,0,0,.32-.52c.15-.18.3-.34.44-.48a3.67,3.67,0,0,1,1.46-.93,2.14,2.14,0,0,1,1.63.15,1.87,1.87,0,0,1,.34.23,2.27,2.27,0,0,1,.54,2.84,4.13,4.13,0,0,1-.36.7s-.45.62-1.19,1.67l-.15.21-.19.27c-.25.36-.54.78-.86,1.22h0l-1.65,2.34-1.2,1.7-1.49,2.11-1.2,1.7-1.61,2.28-1.24,1.75-1.38,1.95c-.45.64-.88,1.24-1.26,1.79s-.61.85-.86,1.21c-.53.74-.91,1.29-1.11,1.56l-.13.18c-.58.78.59,1.79.59,1.79a1.55,1.55,0,0,0,1.79.18l.48-.67.37-.51,1-1.33.16-.23.11-.15,1.07-1.48,1.5-2.07,1.23-1.7,1.51-2.09,1.32-1.82h0l1.48-2,1.24-1.72,1.52-2.1.46-.63a22.08,22.08,0,0,0,1.81-2.27h0c.15-.22.29-.42.41-.63a10.84,10.84,0,0,0,1-2.11h0c1.19-3.43-.68-5.08-.68-5.08a12.1,12.1,0,0,0-1.51-1.3,8,8,0,0,0-1.76-1l-.2-.08-.13-.05-.23-.07a4.69,4.69,0,0,0-3,.07,5.65,5.65,0,0,0-1.51.85,7.1,7.1,0,0,0-.92.87A5.5,5.5,0,0,0,269.19,232.5Z"/><path class="cls-22" d="M277.39,230.84c1.8,1.22,2.31,5.52,2.39,6.51,1.19-3.43-.68-5.08-.68-5.08a12.1,12.1,0,0,0-1.51-1.3Z"/><path class="cls-22" d="M273.93,229.6a11.68,11.68,0,0,1,1.82,3.65,1.87,1.87,0,0,1,.34.23,2.27,2.27,0,0,1,.54,2.84,46,46,0,0,1,.8,5l.92-1.2h0l.42-.54a.51.51,0,0,0,0-.09c-.1-.9-1-8.36-2.85-9.45a1.2,1.2,0,0,0-.28-.12l-.13-.05A5.53,5.53,0,0,0,273.93,229.6Z"/><path class="cls-22" d="M273.88,240.39h0c.07.11.87,1.56.68,4.72l1.52-2.1c0-.43,0-3-1-4.32h0l-.15.21-.19.27Z"/><path class="cls-22" d="M270.8,230.7c.36.2,1.25.91,1.86,3.33a3.67,3.67,0,0,1,1.46-.93h0a6.79,6.79,0,0,0-1.82-3.24A5.65,5.65,0,0,0,270.8,230.7Z"/><path class="cls-22" d="M272.23,242.73l-1.2,1.7a8.54,8.54,0,0,1,.81,4.44l1.48-2A10.17,10.17,0,0,0,272.23,242.73Z"/><path class="cls-22" d="M268.34,248.24a9,9,0,0,1,.67,4.55l1.51-2.09c0-.69-.07-3-1-4.16Z"/><path class="cls-22" d="M266.73,250.52a8.49,8.49,0,0,1,1,4l-1.5,2.07a8.38,8.38,0,0,0-.79-4.29Z"/><path class="cls-22" d="M264.11,254.22c-.45.64-.88,1.24-1.26,1.79a8.58,8.58,0,0,1,.76,4.25l1.33-1.84.16-.23A8.78,8.78,0,0,0,264.11,254.22Z"/><path class="cls-22" d="M269.19,232.5s0-.13-.21.44c.61.43,1,1.71,1.58,2.9a1.54,1.54,0,0,0,.49-.13,2.12,2.12,0,0,0,.85-.68,12.58,12.58,0,0,0-2-3.46A5.5,5.5,0,0,0,269.19,232.5Z"/><polygon class="cls-23" points="223.24 20.57 229.24 12.16 242.65 14.11 242.65 14.11 223.24 20.57"/><polygon class="cls-23" points="223.38 0 229.44 12.13 229.6 12.16 223.24 20.57 223.38 0"/><polygon class="cls-24" points="217.17 12.25 217.21 12.24 223.38 0 223.26 20.58 217.17 12.25"/><polygon class="cls-25" points="223.26 20.58 203.87 14.15 203.82 14.11 217.2 12.16 223.26 20.58 223.26 20.58"/><polygon class="cls-26" points="223.24 30.55 211.24 36.84 223.26 20.56 223.24 30.55"/><polygon class="cls-24" points="235.24 36.88 235.24 36.88 223.24 30.58 223.26 20.56 235.24 36.88"/><polygon class="cls-23" points="232.94 23.52 235.24 36.85 223.26 20.56 232.94 23.52"/><polygon class="cls-24" points="242.63 14.11 232.93 23.55 232.93 23.55 223.26 20.56 242.63 14.11"/><polygon class="cls-24" points="213.53 23.55 223.26 20.56 211.24 36.88 211.24 36.88 213.53 23.55"/><polygon class="cls-24" points="213.53 23.55 213.53 23.55 203.87 14.15 223.26 20.56 213.53 23.55"/><path class="cls-27" d="M220.73,144.59a.88.88,0,0,1,.2-.85l3.2-3.44a.8.8,0,0,1,1.16-.05.83.83,0,0,1,0,1.17l-3.2,3.44a.8.8,0,0,1-1.16.06.78.78,0,0,1-.21-.33Z"/><path class="cls-26" d="M224.42,147.16a4,4,0,1,1-.91-5.66,4.06,4.06,0,0,1,.91,5.66Z"/><path class="cls-28" d="M217.2,145.77a3.84,3.84,0,0,0,1.61,2.55,4.06,4.06,0,0,0,5.61-1.16,4.23,4.23,0,0,0,.73-2.69C224.49,147,219.71,149.67,217.2,145.77Z"/><path class="cls-29" d="M223.94,148.72h0Z"/><path class="cls-30" d="M220.32,141.3a2.85,2.85,0,0,0-1.62,1.08.3.3,0,0,0,.13.42.59.59,0,0,0,.65-.12,4.71,4.71,0,0,1,.75-.73C221.07,141.38,220.54,141.26,220.32,141.3Z"/><path class="cls-27" d="M236.47,151.38a.82.82,0,0,1-.34-.79l.51-3.39a.87.87,0,0,1,.93-.75.78.78,0,0,1,.69.91l-.5,3.4a.87.87,0,0,1-.93.75.82.82,0,0,1-.36-.13Z"/><path class="cls-31" d="M239.48,153.89a4.08,4.08,0,0,1-5,2.67,3.85,3.85,0,0,1-2.4-5,4.07,4.07,0,0,1,5-2.66,3.85,3.85,0,0,1,2.41,5Z"/><path class="cls-32" d="M231.92,153.55a3.72,3.72,0,0,0,2.55,3,4.08,4.08,0,0,0,5-2.67,4,4,0,0,0-.36-3.34C239.69,154.07,235.11,158.1,231.92,153.55Z"/><path class="cls-30" d="M236.09,149.25c-.35-.17-.92-.15-1.75.46-.32.24-.5.83-.13.76.15,0,1.41-.61,1.54-.7-.07.06.06,0,.06,0l.12,0C236.1,149.65,236.34,149.36,236.09,149.25Z"/><path class="cls-27" d="M178.39,108.42a.81.81,0,0,1,0-.85l1.81-2.91a.85.85,0,0,1,1.14-.33.79.79,0,0,1,.28,1.12l-1.8,2.92a.87.87,0,0,1-1.15.32.81.81,0,0,1-.28-.27Z"/><path class="cls-33" d="M190.33,120.59a.49.49,0,0,0-.16,0l.16,0Z"/><path class="cls-27" d="M178.39,108.42a.81.81,0,0,1,0-.85l1.81-2.91a.85.85,0,0,1,1.14-.33.79.79,0,0,1,.28,1.12l-1.8,2.92a.87.87,0,0,1-1.15.32.81.81,0,0,1-.28-.27Z"/><path class="cls-27" d="M190.78,120.29a.79.79,0,0,1,0-.85l1.81-2.91a.86.86,0,0,1,1.15-.33.8.8,0,0,1,.28,1.12l-1.81,2.91a.86.86,0,0,1-1.15.33.81.81,0,0,1-.28-.27Z"/><path class="cls-26" d="M181.11,111.64a4.08,4.08,0,0,1-5.65.47,3.84,3.84,0,0,1-.25-5.52,4.08,4.08,0,0,1,5.64-.48,3.85,3.85,0,0,1,.26,5.53Z"/><path class="cls-28" d="M181.54,106.92c.47,1.82-1,5.41-5.55,5.56a4.11,4.11,0,0,0,5.12-.84A3.88,3.88,0,0,0,181.54,106.92Z"/><path class="cls-30" d="M179.83,106a2.29,2.29,0,0,0-1.78-.34c-.39,0-.57.48-.2.56a14.14,14.14,0,0,0,1.46.13c-.09,0,.06,0,.06,0h.13C179.68,106.41,180,106.23,179.83,106Z"/><path class="cls-31" d="M194,122a4.09,4.09,0,0,1-5,2.67,3.84,3.84,0,0,1-2.41-5,4.08,4.08,0,0,1,5-2.66,3.84,3.84,0,0,1,2.42,5Z"/><path class="cls-32" d="M186.39,121.39A3.75,3.75,0,0,0,189,124.7a4,4,0,0,0,4.17-1.23C192.42,123.54,189.29,125,186.39,121.39Z"/><path class="cls-30" d="M190.62,117.38a2.36,2.36,0,0,0-1.77.39c-.35.19-.34.67,0,.59a11.41,11.41,0,0,0,1.4-.45c-.08.06.05,0,.06,0l.12,0C190.63,117.79,190.87,117.49,190.62,117.38Z"/><path class="cls-34" d="M178,100.38a164.14,164.14,0,0,0,12.51,12.79q6.56,6.09,13.59,11.63a173.3,173.3,0,0,0,30.06,19.26,119.55,119.55,0,0,0,33.74,11.32,101,101,0,0,0,17.8,1.23,95.48,95.48,0,0,0,17.72-2.32A95.43,95.43,0,0,1,285.67,157a101.19,101.19,0,0,1-17.9-1,118.22,118.22,0,0,1-34-11.23,169.61,169.61,0,0,1-30.08-19.46A185.12,185.12,0,0,1,178,100.38Z"/><path class="cls-27" d="M249.89,155a.8.8,0,0,1-.34-.78l.15-1.58a.86.86,0,0,1,.93-.75.79.79,0,0,1,.7.91l-.15,1.58a.86.86,0,0,1-.93.75.71.71,0,0,1-.36-.13Z"/><path class="cls-35" d="M252.32,160a3.9,3.9,0,1,1-.89-5.57,4,4,0,0,1,.89,5.57Z"/><path class="cls-36" d="M252.73,156c-.62,2.89-3,4.61-6.51,3.23a12.1,12.1,0,0,0-1-.83,3.81,3.81,0,0,0,1.6,2.71,4,4,0,0,0,5.52-1.15A4.1,4.1,0,0,0,252.73,156Z"/><path class="cls-30" d="M248,154.88c.22-.16.15-.56-.51-.26-.45.21-1.57,1.51-1.49,1.89s.11.13.27,0A6.87,6.87,0,0,1,248,154.88Z"/><path class="cls-27" d="M280.53,161.16a.79.79,0,0,1-.33-.78l.15-1.58a.87.87,0,0,1,.93-.75.79.79,0,0,1,.69.92l-.14,1.57a.88.88,0,0,1-.93.76.87.87,0,0,1-.37-.14Z"/><path class="cls-35" d="M283.49,165.17a3.9,3.9,0,1,1-.9-5.58,4,4,0,0,1,.9,5.58Z"/><path class="cls-36" d="M283.28,163.9c-2.16,1.44-4.87,1.75-6.85.09a3.81,3.81,0,0,0,1.53,2.32,4,4,0,0,0,5.53-1.14,4.2,4.2,0,0,0,.72-2.68A4.94,4.94,0,0,1,283.28,163.9Z"/><path class="cls-30" d="M279.16,160c.17-.21-.17-.29-.31-.17-.36.34-.83.4-1.17.8s-.6.62-.52,1a.34.34,0,0,0,.54.13,3.5,3.5,0,0,0,.63-.89A7.65,7.65,0,0,1,279.16,160Z"/><path class="cls-27" d="M207.15,131.45a.8.8,0,0,1-.33-.78l.15-1.58a.87.87,0,0,1,.93-.75.79.79,0,0,1,.7.91l-.15,1.58a.86.86,0,0,1-.93.75.75.75,0,0,1-.37-.13Z"/><path class="cls-35" d="M209.59,136.38a3.9,3.9,0,1,1-.89-5.57,4,4,0,0,1,.89,5.57Z"/><path class="cls-36" d="M202.89,136.18a3.8,3.8,0,0,0,1.18,1.35,4,4,0,0,0,5.52-1.15,4.16,4.16,0,0,0,.66-3.16A4.69,4.69,0,0,1,202.89,136.18Z"/><path class="cls-30" d="M205.26,131.25c.17-.2-.17-.29-.31-.16-.36.33-.83.4-1.17.8s-.6.61-.52,1a.34.34,0,0,0,.54.13,3.5,3.5,0,0,0,.63-.89A8.57,8.57,0,0,1,205.26,131.25Z"/><path class="cls-27" d="M225,281.28a.89.89,0,0,1,0-.88l2.44-4a.81.81,0,0,1,1.13-.29.85.85,0,0,1,.24,1.15l-2.44,4a.82.82,0,0,1-1.13.29.9.9,0,0,1-.27-.28Z"/><path class="cls-26" d="M229.15,283.05a4,4,0,1,1-2-5.36,4.05,4.05,0,0,1,2,5.36Z"/><path class="cls-28" d="M221.8,283.14a3.86,3.86,0,0,0,2.09,2.18,4.05,4.05,0,0,0,5.26-2.27,4.25,4.25,0,0,0,.18-2.78C229.19,282.92,225.05,286.46,221.8,283.14Z"/><path class="cls-29" d="M227.8,285.69l-.16,0,.16,0Z"/><path class="cls-30" d="M224,278.14a2.79,2.79,0,0,0-1.37,1.38.3.3,0,0,0,.21.39.59.59,0,0,0,.61-.25,5.55,5.55,0,0,1,.59-.87C224.71,278.06,224.16,278.06,224,278.14Z"/><path class="cls-27" d="M270.59,287.62a.8.8,0,0,1-.48-.7l-.18-3.42a.86.86,0,0,1,.76-.92.77.77,0,0,1,.86.75l.19,3.42a.87.87,0,0,1-.76.93.84.84,0,0,1-.39-.06Z"/><path class="cls-31" d="M274.05,289.48a4.08,4.08,0,0,1-4.37,3.62,3.84,3.84,0,0,1-3.35-4.39,4.08,4.08,0,0,1,4.36-3.62,3.84,3.84,0,0,1,3.36,4.39Z"/><path class="cls-32" d="M266.58,290.67a3.75,3.75,0,0,0,3.1,2.43,4.08,4.08,0,0,0,4.37-3.62,3.94,3.94,0,0,0-1-3.2C274.29,289.62,270.62,294.48,266.58,290.67Z"/><path class="cls-33" d="M240.35,286.46l-.14.09a.67.67,0,0,0,.14-.09Z"/><path class="cls-30" d="M269.8,285.61c-.38-.09-.93,0-1.62.81-.26.3-.32.91,0,.76.14-.06,1.26-.87,1.38-1l.05,0a.52.52,0,0,1,.11-.07C269.89,286,270.07,285.67,269.8,285.61Z"/><path class="cls-33" d="M189.22,264.88a.39.39,0,0,0-.14.08l.14-.08Z"/><path class="cls-27" d="M171,254.93a.8.8,0,0,1-.17-.83l1.18-3.22a.87.87,0,0,1,1.06-.55.79.79,0,0,1,.5,1l-1.18,3.22a.87.87,0,0,1-1.06.55.81.81,0,0,1-.33-.21Z"/><path class="cls-27" d="M188.48,265a.84.84,0,0,1-.17-.84L189.5,261a.85.85,0,0,1,1.06-.55.79.79,0,0,1,.5,1l-1.18,3.22a.87.87,0,0,1-1.06.55.77.77,0,0,1-.34-.2Z"/><path class="cls-26" d="M174.3,257.54a4.08,4.08,0,0,1-5.44,1.6,3.86,3.86,0,0,1-1.36-5.36,4.08,4.08,0,0,1,5.44-1.6,3.84,3.84,0,0,1,1.36,5.36Z"/><path class="cls-28" d="M173.77,252.83c.83,1.69.09,5.5-4.32,6.56a4.1,4.1,0,0,0,4.85-1.85A3.88,3.88,0,0,0,173.77,252.83Z"/><path class="cls-30" d="M171.92,252.3a2.34,2.34,0,0,0-1.81,0c-.38.12-.46.59-.09.59a11.85,11.85,0,0,0,1.46-.16c-.08,0,.06,0,.06,0h.13C171.84,252.7,172.14,252.46,171.92,252.3Z"/><path class="cls-31" d="M192,266.1a4.08,4.08,0,0,1-4.37,3.61,3.83,3.83,0,0,1-3.35-4.39,4.07,4.07,0,0,1,4.36-3.61A3.84,3.84,0,0,1,192,266.1Z"/><path class="cls-32" d="M184.41,267a3.76,3.76,0,0,0,3.21,2.72,4,4,0,0,0,3.84-2C190.75,267.89,188,269.9,184.41,267Z"/><path class="cls-30" d="M187.74,262.22a2.3,2.3,0,0,0-1.65.74c-.31.25-.2.72.15.57a12.2,12.2,0,0,0,1.27-.72c-.06.06.05,0,.06,0l.1-.07C187.83,262.62,188,262.28,187.74,262.22Z"/><path class="cls-34" d="M155,238a180.16,180.16,0,0,0,18.56,13.12,216.23,216.23,0,0,0,19.86,11,199.9,199.9,0,0,0,42.67,15.31,173.79,173.79,0,0,0,45,4.82l2.84-.06,2.83-.18c1.89-.14,3.79-.23,5.67-.4,3.76-.46,7.54-.77,11.27-1.47a179.61,179.61,0,0,0,22.17-5,166.29,166.29,0,0,1-44.77,7.54,174.17,174.17,0,0,1-45.21-4.6,199.79,199.79,0,0,1-42.72-15.58A194.17,194.17,0,0,1,155,238Z"/><path class="cls-27" d="M253,284.83a.8.8,0,0,1-.48-.7l-.17-1.58a.87.87,0,0,1,.76-.92.8.8,0,0,1,.87.75l.17,1.58a.88.88,0,0,1-.76.93.84.84,0,0,1-.39-.06Z"/><path class="cls-35" d="M256.4,289.22a3.9,3.9,0,1,1-2-5.28,4,4,0,0,1,2,5.28Z"/><path class="cls-36" d="M256,285.26c0,2.95-2.05,5.13-5.72,4.47a11.19,11.19,0,0,0-1.17-.61,3.79,3.79,0,0,0,2.11,2.34,4,4,0,0,0,5.18-2.24A4.06,4.06,0,0,0,256,285.26Z"/><path class="cls-30" d="M251.13,285.07c.18-.2,0-.58-.55-.14-.4.28-1.24,1.79-1.08,2.15.09.2.13.1.26-.08A7,7,0,0,1,251.13,285.07Z"/><path class="cls-27" d="M300.09,283.76a.8.8,0,0,1-.48-.69l-.16-1.58a.84.84,0,0,1,.75-.92.79.79,0,0,1,.87.75l.17,1.58a.87.87,0,0,1-.76.92.84.84,0,0,1-.39-.06Z"/><path class="cls-35" d="M303.8,287.63a3.9,3.9,0,1,1-2-5.28,4,4,0,0,1,2,5.28Z"/><path class="cls-36" d="M303.33,286.43c-1.82,1.85-4.41,2.7-6.68,1.46a3.76,3.76,0,0,0,2,2,4,4,0,0,0,5.18-2.23,4.15,4.15,0,0,0,.16-2.77A4.54,4.54,0,0,1,303.33,286.43Z"/><path class="cls-30" d="M298.52,283.48c.13-.24-.22-.25-.34-.1-.28.4-.73.56-1,1s-.47.73-.32,1.09a.35.35,0,0,0,.56,0,3.83,3.83,0,0,0,.44-1A8.34,8.34,0,0,1,298.52,283.48Z"/><path class="cls-27" d="M207.88,272.14a.83.83,0,0,1-.48-.7l-.17-1.58a.87.87,0,0,1,.76-.92.79.79,0,0,1,.87.75l.17,1.58a.86.86,0,0,1-.76.92.73.73,0,0,1-.39-.05Z"/><path class="cls-35" d="M211.26,276.48a3.9,3.9,0,1,1-2-5.28,4,4,0,0,1,2,5.28Z"/><path class="cls-36" d="M204.66,277.63a3.81,3.81,0,0,0,1.42,1.08,4,4,0,0,0,5.18-2.23,4.12,4.12,0,0,0,0-3.23A4.68,4.68,0,0,1,204.66,277.63Z"/><path class="cls-30" d="M206,272.33c.13-.24-.22-.26-.34-.1-.28.4-.73.55-1,1s-.47.73-.31,1.09.42.19.55,0a3.58,3.58,0,0,0,.44-1A8.3,8.3,0,0,1,206,272.33Z"/><path class="cls-27" d="M195.92,224.19a.86.86,0,0,1-.46-.74l-.18-4.69a.81.81,0,0,1,.77-.87.85.85,0,0,1,.85.83l.18,4.69a.81.81,0,0,1-.78.86.79.79,0,0,1-.38-.08Z"/><path class="cls-26" d="M196.38,228.07a4,4,0,1,1,4.21-3.88,4.06,4.06,0,0,1-4.21,3.88Z"/><path class="cls-28" d="M193.55,221.28a3.85,3.85,0,0,0-1.24,2.76,4.06,4.06,0,0,0,4.07,4,4.18,4.18,0,0,0,2.64-.88C196.51,228.06,191.68,225.53,193.55,221.28Z"/><path class="cls-29" d="M201.11,224.83a.63.63,0,0,0-.11.12l.11-.12Z"/><path class="cls-30" d="M199,221.42a2.8,2.8,0,0,0-1.8-.76.29.29,0,0,0-.28.34.57.57,0,0,0,.46.47,5.45,5.45,0,0,1,1,.23C199.35,222.09,199.15,221.57,199,221.42Z"/><path class="cls-27" d="M211.83,217.83a.81.81,0,0,1-.79-.32l-2-2.75a.87.87,0,0,1,.13-1.19.78.78,0,0,1,1.13.15l2.05,2.75a.87.87,0,0,1-.12,1.19.76.76,0,0,1-.35.17Z"/><path class="cls-31" d="M214.74,222.3a4.07,4.07,0,0,1-5.64-.57,3.84,3.84,0,0,1,.77-5.47,4.08,4.08,0,0,1,5.63.56,3.84,3.84,0,0,1-.76,5.48Z"/><path class="cls-32" d="M208.65,217.82a3.71,3.71,0,0,0,.45,3.91,4.07,4.07,0,0,0,5.64.57,4,4,0,0,0,1.57-3C214.82,222.57,208.78,223.37,208.65,217.82Z"/><path class="cls-30" d="M214.51,216.56c-.2-.34-.68-.64-1.71-.59-.4,0-.88.41-.53.55a15.33,15.33,0,0,0,1.67.29c-.09,0,.05,0,.06,0l.12,0C214.29,216.9,214.66,216.79,214.51,216.56Z"/><path class="cls-33" d="M157.46,228.8a.64.64,0,0,0-.08.14.64.64,0,0,0,.08-.14Z"/><path class="cls-27" d="M140.44,229.27a.83.83,0,0,1-.6-.6l-.79-3.34a.86.86,0,0,1,.58-1,.79.79,0,0,1,1,.59l.79,3.33a.83.83,0,0,1-1,1.06Z"/><path class="cls-27" d="M157.75,228.58a.8.8,0,0,1-.6-.6l-.79-3.34a.86.86,0,0,1,.58-1,.8.8,0,0,1,1,.59l.79,3.34a.85.85,0,0,1-.58,1,.74.74,0,0,1-.39,0Z"/><path class="cls-26" d="M137.5,232.06a4.08,4.08,0,0,0,5.37,1.83,3.86,3.86,0,0,0,1.58-5.3,4.09,4.09,0,0,0-5.36-1.83,3.85,3.85,0,0,0-1.59,5.3Z"/><path class="cls-28" d="M138.23,227.38c-.9,1.65-.32,5.5,4,6.73a4.1,4.1,0,0,1-4.77-2.05A3.87,3.87,0,0,1,138.23,227.38Z"/><path class="cls-30" d="M143.46,228.21c0-.38-.47-.89-1.19-1.36-.33-.22-.75,0-.5.31a11.21,11.21,0,0,0,1.06,1c-.08,0,0,0,0,0a.7.7,0,0,1,.1.08C143.1,228.42,143.48,228.49,143.46,228.21Z"/><path class="cls-31" d="M161.26,227.52a4.08,4.08,0,0,1-1.64,5.43,3.85,3.85,0,0,1-5.23-1.8,4.08,4.08,0,0,1,1.65-5.42,3.83,3.83,0,0,1,5.22,1.79Z"/><path class="cls-32" d="M155.43,232.46a3.74,3.74,0,0,0,4.19.49,4,4,0,0,0,2.07-3.82C161.22,229.71,160,232.93,155.43,232.46Z"/><path class="cls-30" d="M160.07,227.05c0-.39-.49-.89-1.22-1.33-.34-.21-.75,0-.5.32a14.39,14.39,0,0,0,1.09,1c-.08,0,.05,0,.06,0l.09.08C159.72,227.26,160.1,227.32,160.07,227.05Z"/><path class="cls-34" d="M123.37,224.29a272.28,272.28,0,0,0,39.06-.65,190.06,190.06,0,0,0,38.26-7.5,147.9,147.9,0,0,0,35.52-15.91,140.83,140.83,0,0,0,15.71-11.57,139.46,139.46,0,0,0,13.83-13.78,138.71,138.71,0,0,1-13.6,14,140.85,140.85,0,0,1-15.68,11.72,148.56,148.56,0,0,1-35.57,16.18,191.14,191.14,0,0,1-38.43,7.29q-9.75.87-19.55.9C136.4,225,129.88,224.7,123.37,224.29Z"/><path class="cls-27" d="M227.47,208.39a.81.81,0,0,1-.79-.32l-1-1.22a.87.87,0,0,1,.12-1.19.8.8,0,0,1,1.14.15l1,1.22a.88.88,0,0,1-.12,1.19.79.79,0,0,1-.36.17Z"/><path class="cls-35" d="M228.2,213.83a3.9,3.9,0,1,0-1.83-5.33,4,4,0,0,0,1.83,5.33Z"/><path class="cls-36" d="M226,210.53c1.9,2.26,4.85,2.64,7.26-.22a12,12,0,0,1,.51-1.2,3.79,3.79,0,0,1-.14,3.14,4,4,0,0,1-5.41,1.58A4.08,4.08,0,0,1,226,210.53Z"/><path class="cls-30" d="M229.61,207.27c-.26,0-.39-.42.33-.46.5,0,2.1.59,2.21,1s0,.16-.25.12A6.82,6.82,0,0,0,229.61,207.27Z"/><path class="cls-27" d="M249.86,193.51a.81.81,0,0,1-.79-.32l-1-1.22a.86.86,0,0,1,.12-1.19.8.8,0,0,1,1.14.15l1,1.22a.87.87,0,0,1-.12,1.19.76.76,0,0,1-.35.17Z"/><path class="cls-35" d="M254.78,194.23a3.9,3.9,0,1,1-4.58-3.29,4,4,0,0,1,4.58,3.29Z"/><path class="cls-36" d="M253.73,193.49c-.5,2.55-2.19,4.69-4.76,4.92a3.79,3.79,0,0,0,2.72.55,4,4,0,0,0,3.09-4.73,4.12,4.12,0,0,0-1.39-2.39A4.86,4.86,0,0,1,253.73,193.49Z"/><path class="cls-30" d="M250,192.11c-.27,0-.34-.37.14-.59a2.17,2.17,0,0,1,2.43.34c.12.2-.29,0-.93-.08C250.64,191.68,250.4,192.15,250,192.11Z"/><path class="cls-27" d="M177,224.54a.8.8,0,0,1-.79-.31l-1-1.23a.85.85,0,0,1,.12-1.18.79.79,0,0,1,1.14.14l1,1.23a.86.86,0,0,1-.12,1.18.76.76,0,0,1-.35.17Z"/><path class="cls-35" d="M174.82,228.52a3.9,3.9,0,1,0,2-5.27,4,4,0,0,0-2,5.27Z"/><path class="cls-36" d="M181.41,229.68a3.57,3.57,0,0,1-1.42,1.08,4,4,0,0,1-5.17-2.24,4.16,4.16,0,0,1,0-3.23A4.68,4.68,0,0,0,181.41,229.68Z"/><path class="cls-30" d="M177.83,223.73c-.25-.1-.06-.32.12-.38a2.81,2.81,0,0,1,2.42.88c.06.22-.61-.13-1.22-.24A8.33,8.33,0,0,1,177.83,223.73Z"/><path class="cls-27" d="M242.42,83a.88.88,0,0,0,.56-.71l.57-4.67a.84.84,0,0,0-.79-.92.89.89,0,0,0-1,.76l-.57,4.66A.83.83,0,0,0,242,83a1.21,1.21,0,0,0,.43,0Z"/><path class="cls-26" d="M237.59,81.66a4.07,4.07,0,0,0,3.06,5,4.45,4.45,0,0,0,5.36-3,4.07,4.07,0,0,0-3.06-5,4.46,4.46,0,0,0-5.36,3Z"/><path class="cls-28" d="M239.44,79.35a4.23,4.23,0,0,0-1.81,2.37,4.05,4.05,0,0,0,3.05,5,4.55,4.55,0,0,0,4.1-1C242.45,87,236.54,83.65,239.44,79.35Z"/><path class="cls-29" d="M241.27,82.9l.11.13a.69.69,0,0,1-.11-.13Z"/><path class="cls-30" d="M245.29,81.09a2.53,2.53,0,0,1,.26,2c-.07.17-.32.28-.32,0a4.15,4.15,0,0,0-.3-1.63C244.76,81.25,244.83,80.58,245.29,81.09Z"/><path class="cls-27" d="M201.82,64.15a.86.86,0,0,0,.69-.52l1.75-4.34a.84.84,0,0,0-.42-1.11.81.81,0,0,0-1.06.47L201,63a.85.85,0,0,0,.43,1.1.74.74,0,0,0,.38.06Z"/><path class="cls-26" d="M197.62,61a4.22,4.22,0,0,0,1.27,5.68,3.9,3.9,0,0,0,5.46-1.41,4.22,4.22,0,0,0-1.28-5.68A3.9,3.9,0,0,0,197.62,61Z"/><path class="cls-28" d="M199.43,65.43a4.82,4.82,0,0,1-.85-5.57,4.09,4.09,0,0,0-1,1.1,4.22,4.22,0,0,0,1.27,5.68,3.82,3.82,0,0,0,4.18-.07C201.6,66.79,200.69,66.27,199.43,65.43Z"/><path class="cls-29" d="M201,63.65l.06.15a.67.67,0,0,1-.06-.15Z"/><path class="cls-30" d="M203.94,60.85a3.4,3.4,0,0,1,.89,1.95.29.29,0,0,1-.36.23c-.23-.05-.37-.52-.4-.75a7,7,0,0,0-.5-1.26C203.47,60.74,203.8,60.69,203.94,60.85Z"/><path class="cls-27" d="M225.17,77.18a.81.81,0,0,0,.48-.7l.14-3.42a.87.87,0,0,0-.77-.91.78.78,0,0,0-.86.76L224,76.32a.89.89,0,0,0,.78.92.78.78,0,0,0,.38-.06Z"/><path class="cls-31" d="M221.1,78.29a4.13,4.13,0,0,0,4.43,3.57,3.81,3.81,0,0,0,3.32-4.4,4.13,4.13,0,0,0-4.43-3.57,3.82,3.82,0,0,0-3.32,4.4Z"/><path class="cls-32" d="M221.14,77a4.27,4.27,0,0,0,0,1.29,4.13,4.13,0,0,0,4.43,3.57,3.79,3.79,0,0,0,3.34-3.47C228.08,80.46,221.9,82.36,221.14,77Z"/><path class="cls-33" d="M224.16,76.93l.15.08-.15-.08Z"/><path class="cls-30" d="M226.33,74.78c.29-.39,1.3.3,1.71,1.65.11.38-.24.25-.6-.24C226.59,75,226,75.17,226.33,74.78Z"/><path class="cls-27" d="M210.37,67.85a.78.78,0,0,0,.8-.25l1.1-1.14a.87.87,0,0,0,0-1.19.78.78,0,0,0-1.15,0L210,66.46a.87.87,0,0,0,0,1.2.77.77,0,0,0,.34.19Z"/><path class="cls-35" d="M205,68.43a4,4,0,0,0,2.73,5,4,4,0,0,0,4.79-2.92,4,4,0,0,0-2.73-5A3.93,3.93,0,0,0,205,68.43Z"/><path class="cls-36" d="M205.43,67.4a3.93,3.93,0,0,0-.43,1,4,4,0,0,0,2.73,5,3.81,3.81,0,0,0,3.66-1C209.8,72.81,205,72.88,205.43,67.4Z"/><path class="cls-30" d="M210.83,66.86c-.14-.23.25-.28.41-.17a2.63,2.63,0,0,1,.82,2.34C211.92,69.21,211.35,67.73,210.83,66.86Z"/><path class="cls-34" d="M201.29,56.08a22.17,22.17,0,0,0,2.42,2.52l1.3,1.16,1.36,1.1c.88.76,1.84,1.43,2.75,2.14S211,64.34,212,65a80.3,80.3,0,0,0,12.15,6.78,64.62,64.62,0,0,0,13.17,4.44c1.13.27,2.28.4,3.43.61.57.08,1.14.21,1.72.25l1.74.13a50.75,50.75,0,0,0,7,.11,51.14,51.14,0,0,1-7,.24l-1.76-.08c-.58,0-1.16-.14-1.74-.21-1.16-.17-2.33-.27-3.48-.51L233.76,76c-1.14-.3-2.24-.68-3.37-1s-2.21-.78-3.31-1.19l-1.64-.63c-.54-.23-1.07-.48-1.6-.72a75.62,75.62,0,0,1-12.17-7c-.94-.7-1.89-1.38-2.82-2.1s-1.84-1.44-2.7-2.23L204.84,60l-1.25-1.23A23.24,23.24,0,0,1,201.29,56.08Z"/><path class="cls-37" d="M212.74,45l21-5.39s3.39,4.66,3.36,7.41c-3.4,1.17-22.31,8-27,6.48.46-2.86.93-6.5,1.37-6.95S212.74,45,212.74,45Z"/><path class="cls-38" d="M176.59,145.58a2.26,2.26,0,0,1,1.25-2.23l1.24-11.78s3.18-3.15,9.38-1.88l5.64,10.72s1.86.39,2.05,1.53L185.52,144l-5.36.89Z"/><path class="cls-39" d="M176.55,145.56c.17.94,4.7.91,10.13-.06s9.7-2.49,9.53-3.42-4.69-.9-10.12.07S176.39,144.64,176.55,145.56Z"/><path class="cls-40" d="M188.14,130.06a13.09,13.09,0,0,0-3-.28l2.57,10.39,5.82.12Z"/><path class="cls-40" d="M179.54,131.82a3.38,3.38,0,0,1,1.05-.72l.52,10.65a9.63,9.63,0,0,0-2.7,1.31Z"/><path class="cls-40" d="M192.05,141.23s3.57-.12,3.95.47c0,0-.48-.91-2.6-1.18S192.05,141.23,192.05,141.23Z"/><path class="cls-41" d="M193.27,140.67l.21.47s1.9,0,2.12.3c0,0-.28-.47-1.41-.64S193.27,140.67,193.27,140.67Z"/><path class="cls-40" d="M181.16,142.22l.06.59a19.85,19.85,0,0,0-2.85,1A4.14,4.14,0,0,1,181.16,142.22Z"/><path class="cls-42" d="M177.92,145.11c.1.62,3.87.48,8.4-.31s8.13-1.94,8-2.55-3.87-.48-8.41.32S177.81,144.49,177.92,145.11Z"/><path class="cls-43" d="M184.08,143.09c-.05-.32,1.15-.78,2.69-1s2.82-.2,2.87.13-1.15.78-2.68,1S184.14,143.41,184.08,143.09Z"/><path class="cls-40" d="M176.56,145.58c.91-.92,4.69-2.15,9.32-3,5.39-1,9.9-1,10.12-.08a.5.5,0,0,0,.2-.44c-.16-.93-4.69-.91-10.12.06s-9.69,2.49-9.53,3.41C176.56,145.57,176.56,145.57,176.56,145.58Z"/><path class="cls-44" d="M188.16,131.72a7.09,7.09,0,0,0-1.59-.15l1.4,5.66,2.88-.09Z"/><path class="cls-38" d="M161.68,125.37a2.26,2.26,0,0,1,2.5.52l11.61-2.36s4,2.1,4.61,8.39l-8.53,8.6s.18,1.89-.85,2.42l-5.16-9.52-2.46-4.85Z"/><path class="cls-39" d="M161.68,125.33c-.84.44.55,4.76,3.11,9.64s5.28,8.51,6.12,8.07-.55-4.75-3.1-9.64S162.52,124.9,161.68,125.33Z"/><path class="cls-40" d="M180,131.73a13.75,13.75,0,0,0-.63-2.95l-9.14,5.58,1.63,5.58Z"/><path class="cls-40" d="M175.69,124.05a3.33,3.33,0,0,1,1,.78l-10,3.7a9.6,9.6,0,0,0-2.06-2.18Z"/><path class="cls-40" d="M170.47,138.81s1.19,3.37.74,3.91c0,0,.73-.74.34-2.83S170.47,138.81,170.47,138.81Z"/><path class="cls-41" d="M171.37,139.8l-.38.35s.57,1.81.35,2.1c0,0,.36-.4.19-1.53A6.94,6.94,0,0,0,171.37,139.8Z"/><path class="cls-40" d="M166.26,128.72l-.55.24a20.71,20.71,0,0,0-1.79-2.43A4.16,4.16,0,0,1,166.26,128.72Z"/><path class="cls-42" d="M162.53,126.5c-.56.28.7,3.83,2.81,7.92s4.29,7.17,4.85,6.88-.71-3.83-2.83-7.92S163.08,126.2,162.53,126.5Z"/><path class="cls-43" d="M166.3,131.77c.29-.15,1.1.86,1.8,2.25s1,2.63.74,2.78-1.09-.86-1.79-2.25S166,131.92,166.3,131.77Z"/><path class="cls-40" d="M161.67,125.34c1.15.6,3.46,3.83,5.63,8,2.54,4.85,3.91,9.15,3.12,9.63a.51.51,0,0,0,.48.06c.84-.44-.55-4.75-3.1-9.63s-5.28-8.5-6.12-8.07C161.68,125.34,161.68,125.34,161.67,125.34Z"/><path class="cls-44" d="M178.37,132.24a7.24,7.24,0,0,0-.33-1.56l-5,3,.95,2.72Z"/><path class="cls-45" d="M180.92,128.37a.59.59,0,0,1-.75-.22c-.57-.87-1.81-2.77-1.93-2.93s0,0,0,0c2-1.22-.9-4.13-1.41-4.61a0,0,0,0,1,0,0c2.89.69,1.94-1.93,1.62-2.68a0,0,0,0,1,0,0c2.22,2.74,2.11-1.63,2.06-2.53,0,0,.05,0,.06,0,1.46,3.6,3.13-5.28,3.22-5.78a0,0,0,0,1,0,0c.13.45,2.48,8.3,5.32,5.26,0,0,.06,0,0,0-.46,1-3,6.84-.7,5.6a1.36,1.36,0,0,0,1.26,1.82s0,0,0,0c-.49.33-4.41,3.11-1.16,3.25a6.27,6.27,0,0,1-1.82.43,4,4,0,0,0-1.57.4Z"/><path class="cls-46" d="M183.87,109.57c-.18.94-1.79,9.22-3.21,5.72,0,0-.06,0-.06,0,.05.9.16,5.27-2.06,2.53a0,0,0,0,0,0,0c.32.75,1.27,3.37-1.62,2.68a0,0,0,0,0,0,0c.51.48,3.38,3.39,1.41,4.61,0,0,0,0,0,0s1.36,2.06,1.93,2.93a.51.51,0,0,0,.14.15C183.53,122.56,185.37,116,183.87,109.57Z"/><path class="cls-47" d="M179.69,129.29a31.51,31.51,0,0,0,3.65-8.11,26.17,26.17,0,0,0,.89-4.38,23.11,23.11,0,0,0,.08-4.48,22.46,22.46,0,0,1,0,4.49,26.62,26.62,0,0,1-.8,4.42,32.31,32.31,0,0,1-3.52,8.28.19.19,0,0,1-.26.06.2.2,0,0,1-.07-.26h0Z"/><path class="cls-47" d="M184.12,117.59a4.55,4.55,0,0,0,1.09-.57,10.53,10.53,0,0,0,1-.76,10.64,10.64,0,0,1-.94.84,5.26,5.26,0,0,1-1.09.68Z"/><path class="cls-47" d="M182.56,123.75a7.9,7.9,0,0,0,3.34-1.56,8,8,0,0,1-3.3,1.74Z"/><path class="cls-47" d="M181.61,125.81a7.32,7.32,0,0,1-1.75-3.88,7.24,7.24,0,0,0,1.88,3.75Z"/><path class="cls-47" d="M183.42,121.14a4.11,4.11,0,0,1-1.53-3,4,4,0,0,0,1.65,2.83Z"/><path class="cls-45" d="M181.73,128.28a.59.59,0,0,1,.13-.77c.81-.65,2.58-2.09,2.73-2.23s0,0,0,0c1.42,1.83,4-1.33,4.44-1.88,0,0,.05,0,0,0-.39,3,2.13,1.73,2.84,1.33a0,0,0,0,1,0,0c-2.5,2.49,1.84,1.93,2.74,1.8,0,0,0,0,0,0-3.42,1.82,5.58,2.57,6.09,2.6h0c-.43.18-8,3.33-4.68,5.84,0,0,0,0,0,0-1-.35-7.11-2.29-5.64-.11a1.36,1.36,0,0,0-1.68,1.43s0,0,0,0c-.38-.45-3.55-4.07-3.35-.81a6.84,6.84,0,0,1-.62-1.77,3.82,3.82,0,0,0-.55-1.52Z"/><path class="cls-46" d="M200.73,129.27c-.95-.08-9.36-.83-6-2.6,0,0,0-.06,0,0-.9.13-5.24.69-2.74-1.8a0,0,0,0,0,0,0c-.71.4-3.23,1.62-2.84-1.33,0,0,0,0,0,0-.43.55-3,3.71-4.44,1.88,0,0,0,0,0,0s-1.92,1.58-2.73,2.23a.65.65,0,0,0-.13.16C187.77,130.28,194.51,131.43,200.73,129.27Z"/><path class="cls-47" d="M180.68,127.15a31.31,31.31,0,0,0,8.45,2.79,25.52,25.52,0,0,0,4.45.44A23.1,23.1,0,0,0,198,130a23.87,23.87,0,0,1-4.46.48,26.89,26.89,0,0,1-4.48-.35,31.39,31.39,0,0,1-8.6-2.64.19.19,0,1,1,.16-.34h0Z"/><path class="cls-47" d="M192.78,130.35a4.22,4.22,0,0,0,.68,1,9.28,9.28,0,0,0,.86.92,12.64,12.64,0,0,1-.94-.85,4.86,4.86,0,0,1-.78-1Z"/><path class="cls-47" d="M186.49,129.44a8,8,0,0,0,1.89,3.16,8.1,8.1,0,0,1-2.07-3.1Z"/><path class="cls-47" d="M184.34,128.7a7.27,7.27,0,0,1,3.68-2.14,7.17,7.17,0,0,0-3.53,2.26Z"/><path class="cls-47" d="M189.17,130a4.13,4.13,0,0,1,2.81-1.83,4,4,0,0,0-2.64,1.93Z"/><path class="cls-45" d="M181.21,126.61a.6.6,0,0,1-.11.77c-.8.68-2.53,2.15-2.68,2.29s0,0,0,0c-1.45-1.8-4,1.42-4.38,2,0,0-.05,0-.05,0,.32-3-2.16-1.68-2.87-1.27,0,0,0,0,0,0,2.44-2.54-1.88-1.89-2.78-1.73,0,0,0,0,0,0,3.38-1.9-5.64-2.44-6.15-2.47,0,0,0,0,0,0,.42-.18,7.91-3.5,4.54-5.93,0,0,0-.06,0,0,1.07.33,7.17,2.13,5.65,0a1.36,1.36,0,0,0,1.64-1.48s0,0,0,0c.39.44,3.64,4,3.37.73A6.61,6.61,0,0,1,178,121a3.94,3.94,0,0,0,.59,1.51Z"/><path class="cls-46" d="M162.2,126.06c.94,0,9.36.61,6.08,2.46,0,0,0,.06,0,0,.9-.16,5.22-.81,2.78,1.73,0,0,0,.07,0,0,.71-.41,3.19-1.69,2.87,1.27,0,0,0,0,.05,0,.41-.56,2.93-3.78,4.38-2,0,0,0,0,0,0s1.88-1.61,2.68-2.29a1,1,0,0,0,.13-.16C175.12,124.75,168.36,123.76,162.2,126.06Z"/><path class="cls-47" d="M182.29,127.71a31.59,31.59,0,0,0-8.52-2.59,25.51,25.51,0,0,0-4.45-.34,22.88,22.88,0,0,0-4.45.49,22.89,22.89,0,0,1,4.44-.58,25.9,25.9,0,0,1,4.49.24,32,32,0,0,1,8.66,2.44.18.18,0,0,1,.09.25.19.19,0,0,1-.25.1h0Z"/><path class="cls-47" d="M170.12,124.79a4.75,4.75,0,0,0-.7-1,10.79,10.79,0,0,0-.89-.9,9.53,9.53,0,0,1,1,.83,4.63,4.63,0,0,1,.8,1Z"/><path class="cls-47" d="M176.42,125.56a8,8,0,0,0-2-3.11,7.93,7.93,0,0,1,2.14,3Z"/><path class="cls-47" d="M178.59,126.25a7.3,7.3,0,0,1-3.63,2.22,7.2,7.2,0,0,0,3.48-2.34Z"/><path class="cls-47" d="M173.73,125a4.11,4.11,0,0,1-2.77,1.9,4,4,0,0,0,2.6-2Z"/><path class="cls-48" d="M180.36,125.74s-2.4-5.7-4-6.59-2.18.62-1.75,1.32,3.82,5.22,4.75,5.79S180.36,125.74,180.36,125.74Z"/><path class="cls-49" d="M179.68,126.51s.82,0,.68-.77c-.21-1-2-1.49-2.94-2.72a16.42,16.42,0,0,1-1.71-3.52c-.32-.62-.73-.88-1.13,0C173.83,121.06,176.19,125,179.68,126.51Z"/><path class="cls-48" d="M179.3,127.9s-5.7.65-7.86,1.22c-1.92.51-1.07-2.18-.23-2.31s6.69-.42,7.79-.06A.64.64,0,0,1,179.3,127.9Z"/><path class="cls-49" d="M179.41,126.83s.56.7-.11,1.07c-.93.53-4.09.26-5.68.33a12.92,12.92,0,0,0-2.38.12c-.7.16-1.18,0-.81-.9C171.1,125.77,175.78,125,179.41,126.83Z"/><path class="cls-48" d="M183,126.89s5.56,0,7.41.16.72,2.21-.08,2.19-6.22-.71-7.19-1.23S183,126.89,183,126.89Z"/><path class="cls-49" d="M182.73,127.87s-.43-.74.23-1c.92-.33,2.62.54,4.11.74a19.93,19.93,0,0,0,3.39.18c.66,0,1.09.19.64,1C190.28,130.22,185.87,130.13,182.73,127.87Z"/><path class="cls-48" d="M181.7,128.75s2.65,5.11,3.37,7.22c.64,1.87,2.47-.25,2.11-1s-3.39-5.82-4.32-6.54S181.7,128.75,181.7,128.75Z"/><path class="cls-49" d="M182.56,128.11s-.91-.11-.86.64c.08,1.06,2.08,3.56,2.92,4.94a12.46,12.46,0,0,1,1.22,2.05c.26.67.66,1,1.24.2C188.13,134.5,186.14,130.21,182.56,128.11Z"/><polygon class="cls-50" points="180.41 130.3 180.34 140.96 182.15 138.69 184.64 140.11 182.26 130.35 180.41 130.3"/><polygon class="cls-50" points="180.41 129.52 173.56 142.02 174.3 138.18 172.12 138.5 179.63 128.55 180.41 129.52"/><path class="cls-51" d="M178.82,126.56c.69-1.75,1.88-1.52,3.14-1h0c1.27.5,2.3,1.13,1.63,2.89s-1.25,2.73-3.48,1.87h0C177.88,129.42,178.13,128.31,178.82,126.56Z"/><path class="cls-52" d="M180.44,125.18c-.81,0-2.19,2.52-.92,4a3.38,3.38,0,0,0,3,1.15c-.5.4-1.21.45-2.37,0h0c-2.23-.86-2-2-1.29-3.72C179.22,125.55,179.79,125.2,180.44,125.18Z"/><path class="cls-50" d="M182,125.53h0c1.27.5,2.3,1.13,1.63,2.89a8.26,8.26,0,0,1-.66,1.39,2.82,2.82,0,0,1-2.8-1.1,2.26,2.26,0,0,1,1.66-3.24l.17.06Z"/><path class="cls-38" d="M168.16,299.72a2.26,2.26,0,0,1,.27-2.54l-3.49-11.32s1.7-4.15,7.9-5.42l9.4,7.65s1.86-.37,2.48.6l-9,6.08-4.58,2.92Z"/><path class="cls-39" d="M168.12,299.71c.52.8,4.68-1,9.29-4s7.94-6.1,7.42-6.89-4.67,1-9.28,4S167.61,298.93,168.12,299.71Z"/><path class="cls-40" d="M172.69,280.91a13.26,13.26,0,0,0-2.87.92l6.45,8.54,5.39-2.17Z"/><path class="cls-40" d="M165.47,285.91a3.28,3.28,0,0,1,.68-1.07l4.66,9.58a9.47,9.47,0,0,0-2,2.27Z"/><path class="cls-40" d="M180.67,289.65s3.23-1.52,3.82-1.13c0,0-.81-.65-2.86-.06S180.67,289.65,180.67,289.65Z"/><path class="cls-41" d="M181.57,288.65l.38.35s1.75-.75,2.06-.56c0,0-.44-.32-1.54,0Z"/><path class="cls-40" d="M171,294.83l.29.53a19.41,19.41,0,0,0-2.24,2A4.17,4.17,0,0,1,171,294.83Z"/><path class="cls-42" d="M169.2,298.76c.33.53,3.74-1.07,7.61-3.58s6.71-5,6.37-5.5-3.75,1.09-7.61,3.6S168.85,298.24,169.2,298.76Z"/><path class="cls-43" d="M174.07,294.48c-.17-.27.75-1.17,2.06-2s2.52-1.29,2.7-1-.75,1.17-2.06,2S174.25,294.75,174.07,294.48Z"/><path class="cls-40" d="M168.13,299.73c.48-1.21,3.48-3.82,7.4-6.39,4.59-3,8.72-4.8,9.28-4a.56.56,0,0,0,0-.49c-.52-.79-4.68,1-9.29,4s-7.93,6.1-7.42,6.88Z"/><path class="cls-44" d="M173.36,282.43a7.36,7.36,0,0,0-1.52.48l3.51,4.66,2.61-1.22Z"/><path class="cls-38" d="M146.51,287a2.25,2.25,0,0,1,2.5-.5l9.75-6.74s4.47.38,7.54,5.91l-4.47,11.26s.91,1.67.17,2.56l-8.49-6.73-4.16-3.49Z"/><path class="cls-39" d="M146.5,287c-.6.73,2.37,4.16,6.64,7.65s8.2,5.74,8.8,5-2.37-4.15-6.64-7.65S147.1,286.23,146.5,287Z"/><path class="cls-40" d="M165.81,285.66a13.28,13.28,0,0,0-1.74-2.46l-6.21,8.71,3.69,4.49Z"/><path class="cls-40" d="M158.87,280.27a3.55,3.55,0,0,1,1.23.33l-7.74,7.33a9.7,9.7,0,0,0-2.76-1.2Z"/><path class="cls-40" d="M159.87,295.9s2.42,2.62,2.22,3.3c0,0,.38-1-.8-2.74S159.87,295.9,159.87,295.9Z"/><path class="cls-41" d="M161.09,296.45l-.21.48s1.24,1.43,1.14,1.79c0,0,.18-.51-.42-1.48Z"/><path class="cls-40" d="M152,288.27l-.42.43a18.73,18.73,0,0,0-2.6-1.52A4.14,4.14,0,0,1,152,288.27Z"/><path class="cls-42" d="M147.73,287.69c-.4.48,2.15,3.25,5.7,6.18s6.77,4.91,7.16,4.43-2.16-3.25-5.71-6.18S148.13,287.2,147.73,287.69Z"/><path class="cls-43" d="M153.28,291.05c.2-.24,1.34.37,2.53,1.37s2,2,1.77,2.27-1.33-.37-2.53-1.37S153.07,291.31,153.28,291.05Z"/><path class="cls-40" d="M146.49,287c1.3.1,4.69,2.17,8.32,5.15,4.24,3.47,7.19,6.88,6.65,7.63a.55.55,0,0,0,.47-.13c.6-.74-2.37-4.16-6.64-7.65s-8.19-5.73-8.79-5Z"/><path class="cls-44" d="M164.56,286.75a6.89,6.89,0,0,0-.92-1.3l-3.38,4.74,1.94,2.13Z"/><path class="cls-45" d="M165.38,282.18a.59.59,0,0,1-.77.11c-.87-.58-2.76-1.85-2.94-2,0,0,0,0,0,0,1.33-1.89-2.46-3.43-3.11-3.68,0,0,0,0,0-.05,2.94-.5,1-2.54.45-3.1,0,0,0-.05,0,0,3.12,1.65,1.31-2.32.91-3.14,0,0,0,0,0,0,2.76,2.73.81-6.09.7-6.59h0c.3.36,5.54,6.66,7,2.75,0,0,.05,0,.05,0,0,1.11-.09,7.47,1.56,5.42a1.35,1.35,0,0,0,1.86,1.18s.05,0,0,0c-.32.49-2.84,4.59.21,3.44a6.66,6.66,0,0,1-1.5,1.11,3.75,3.75,0,0,0-1.29,1Z"/><path class="cls-46" d="M160.71,263.74c.21.93,2,9.18-.71,6.53,0,0-.06,0,0,0,.4.82,2.21,4.79-.91,3.14,0,0-.06,0,0,0,.59.56,2.49,2.6-.45,3.1,0,0,0,0,0,.05.65.25,4.44,1.79,3.11,3.68,0,0,0,0,0,0,.18.1,2.07,1.37,2.94,2a.64.64,0,0,0,.19.08C165.5,275.82,164.61,269,160.71,263.74Z"/><path class="cls-47" d="M164.62,283.52a31.58,31.58,0,0,0,.16-8.9,25.11,25.11,0,0,0-.9-4.37,22.27,22.27,0,0,0-1.68-4.15,22.78,22.78,0,0,1,1.78,4.12,25.24,25.24,0,0,1,1,4.38,31.85,31.85,0,0,1,0,9,.18.18,0,0,1-.21.16.19.19,0,0,1-.17-.21h0Z"/><path class="cls-47" d="M164.09,271a4.82,4.82,0,0,0,.78-.95,11.75,11.75,0,0,0,.62-1.09c-.16.38-.34.77-.54,1.14a4.84,4.84,0,0,1-.73,1.05Z"/><path class="cls-47" d="M165.08,277.29a7.9,7.9,0,0,0,2.46-2.74,8,8,0,0,1-2.35,2.9Z"/><path class="cls-47" d="M165,279.57a7.23,7.23,0,0,1-3.13-2.89,7.2,7.2,0,0,0,3.2,2.71Z"/><path class="cls-47" d="M164.84,274.56a4.1,4.1,0,0,1-2.58-2.14,4,4,0,0,0,2.63,1.95Z"/><path class="cls-45" d="M166.09,281.79a.59.59,0,0,1-.18-.76c.49-.92,1.55-2.93,1.63-3.12,0,0,0,0,0,0,2,1.13,3.16-2.8,3.34-3.46,0,0,0,0,.05,0,.8,2.87,2.64.76,3.13.12a0,0,0,1,1,0,0c-1.32,3.27,2.45,1.05,3.22.57a0,0,0,0,1,0,0c-2.43,3,6.14.17,6.62,0,0,0,0,0,0,0-.32.33-6,6.2-2,7.21,0,0,0,0,0,.05-1.11.09-7.44.68-5.23,2.1a1.36,1.36,0,0,0-1,2s0,.05,0,0c-.52-.26-4.86-2.35-3.4.57a6.49,6.49,0,0,1-1.26-1.38,3.91,3.91,0,0,0-1.11-1.18Z"/><path class="cls-46" d="M184,275.24c-.9.3-8.92,2.91-6.56,0a0,0,0,0,0,0,0c-.77.48-4.54,2.7-3.22-.57a0,0,0,1,0,0,0c-.49.64-2.33,2.75-3.13-.12,0,0,0,0-.05,0-.18.66-1.32,4.59-3.34,3.46,0,0,0,0,0,0-.08.19-1.14,2.2-1.63,3.12a.7.7,0,0,0-.06.19C172.44,281.25,179.08,279.66,184,275.24Z"/><path class="cls-47" d="M164.68,281.17a31.91,31.91,0,0,0,8.87-.76,26.33,26.33,0,0,0,4.26-1.34,22.69,22.69,0,0,0,3.95-2.11,22.36,22.36,0,0,1-3.91,2.19,25.66,25.66,0,0,1-4.25,1.45,31.67,31.67,0,0,1-8.95.95.19.19,0,1,1,0-.38h0Z"/><path class="cls-47" d="M177.06,279.35a4.84,4.84,0,0,0,1,.68,11.75,11.75,0,0,0,1.15.5,10.53,10.53,0,0,1-1.19-.42,4.42,4.42,0,0,1-1.12-.62Z"/><path class="cls-47" d="M170.93,281a7.84,7.84,0,0,0,3,2.17,7.91,7.91,0,0,1-3.13-2Z"/><path class="cls-47" d="M168.66,281.15a7.28,7.28,0,0,1,2.54-3.41,7.25,7.25,0,0,0-2.36,3.46Z"/><path class="cls-47" d="M173.62,280.47a4.1,4.1,0,0,1,1.86-2.79,4,4,0,0,0-1.67,2.81Z"/><path class="cls-45" d="M165,280.46a.58.58,0,0,1,.2.75c-.47.93-1.48,3-1.56,3.16,0,0,0,0,0,0-2.05-1.08-3.1,2.87-3.26,3.54,0,0,0,0-.05,0-.87-2.85-2.65-.7-3.13-.05,0,0-.06,0-.05,0,1.25-3.3-2.47-1-3.23-.5,0,0,0,0,0,0,2.37-3.07-6.14,0-6.62.15h0c.32-.34,5.9-6.33,1.85-7.24,0,0,0-.05,0-.05,1.11-.12,7.43-.86,5.19-2.23a1.36,1.36,0,0,0,.94-2s0-.05,0,0c.53.25,4.91,2.23,3.39-.65a6.82,6.82,0,0,1,1.29,1.36,4,4,0,0,0,1.14,1.15Z"/><path class="cls-46" d="M147.25,287.42c.9-.32,8.86-3.12,6.56-.13,0,0,0,.07,0,0,.76-.5,4.48-2.8,3.23.5,0,0,0,.06.05,0,.48-.65,2.26-2.8,3.13.05,0,0,0,0,.05,0,.16-.67,1.21-4.62,3.26-3.54,0,0,0,0,0,0,.08-.19,1.09-2.23,1.56-3.16a.46.46,0,0,0,.05-.2C158.63,281.14,152,282.88,147.25,287.42Z"/><path class="cls-47" d="M166.38,281.05a31.87,31.87,0,0,0-8.85.95,26.39,26.39,0,0,0-4.23,1.45,23.33,23.33,0,0,0-3.9,2.19,23,23,0,0,1,3.86-2.28,25.37,25.37,0,0,1,4.22-1.54,31.94,31.94,0,0,1,8.92-1.15.18.18,0,0,1,.19.19.19.19,0,0,1-.19.19h0Z"/><path class="cls-47" d="M154.05,283.14a4.87,4.87,0,0,0-1.05-.65,9.07,9.07,0,0,0-1.16-.47,8.4,8.4,0,0,1,1.2.39,4.42,4.42,0,0,1,1.14.59Z"/><path class="cls-47" d="M160.14,281.37a7.9,7.9,0,0,0-3-2.09,8.05,8.05,0,0,1,3.17,2Z"/><path class="cls-47" d="M162.41,281.16a7.32,7.32,0,0,1-2.47,3.46,7.15,7.15,0,0,0,2.28-3.51Z"/><path class="cls-47" d="M157.46,282a4.08,4.08,0,0,1-1.79,2.83,4,4,0,0,0,1.6-2.85Z"/><path class="cls-48" d="M163.83,280s-4.44-4.31-6.26-4.51-1.75,1.43-1.08,1.91,5.56,3.3,6.64,3.46S163.83,280,163.83,280Z"/><path class="cls-49" d="M163.51,281s.75-.35.32-1c-.6-.87-2.43-.59-3.77-1.35a17.73,17.73,0,0,1-3-2.57c-.53-.45-1-.52-1,.43C156,278.26,159.7,280.94,163.51,281Z"/><path class="cls-48" d="M163.71,282.39s-5,2.84-6.75,4.22c-1.57,1.22-1.84-1.59-1.11-2s6-3,7.14-3.11S163.71,282.39,163.71,282.39Z"/><path class="cls-49" d="M163.39,281.37s.79.41.32,1c-.65.86-3.66,1.85-5.1,2.54a13.09,13.09,0,0,0-2.14,1c-.58.43-1.08.47-1.1-.51C155.34,283.66,159.35,281.14,163.39,281.37Z"/><path class="cls-48" d="M166.68,280s5.12-2.17,6.87-2.76,1.53,1.74.79,2-6,1.8-7.09,1.7S166.68,280,166.68,280Z"/><path class="cls-49" d="M166.85,281s-.69-.51-.17-1c.72-.67,2.62-.53,4.07-.93a18.72,18.72,0,0,0,3.18-1.18c.6-.29,1.08-.25,1,.65C174.71,280.22,170.63,281.87,166.85,281Z"/><path class="cls-48" d="M166.25,282.24s4.44,3.65,5.94,5.31c1.32,1.47,2.17-1.2,1.53-1.77s-5.4-4-6.54-4.32S166.25,282.24,166.25,282.24Z"/><path class="cls-49" d="M166.79,281.3s-.88.26-.54.94c.49.94,3.31,2.45,4.62,3.39a11.67,11.67,0,0,1,1.93,1.4c.5.52,1,.65,1.22-.29C174.42,285,170.91,281.83,166.79,281.3Z"/><polygon class="cls-50" points="165.67 284.17 169.79 294 170.57 291.2 173.42 291.52 167.4 283.48 165.67 284.17"/><polygon class="cls-50" points="165.37 283.45 163.98 297.63 163.15 293.81 161.27 294.97 164.26 282.86 165.37 283.45"/><path class="cls-51" d="M162.74,281.35c-.05-1.88,1.13-2.13,2.49-2.18h0c1.36,0,2.55.14,2.62,2s-.07,3-2.46,3.08h0C163,284.35,162.79,283.23,162.74,281.35Z"/><path class="cls-52" d="M163.69,279.44c-.74.36-1,3.18.71,4a3.47,3.47,0,0,0,3.18-.1c-.32.56-1,.88-2.19.92h0c-2.39.08-2.6-1-2.65-2.92A1.79,1.79,0,0,1,163.69,279.44Z"/><path class="cls-50" d="M165.23,279.17h0c1.36,0,2.55.14,2.62,2a6.83,6.83,0,0,1-.06,1.54,2.82,2.82,0,0,1-3,.09,2.26,2.26,0,0,1,.25-3.64Z"/><path class="cls-38" d="M274.8,224.27a2.24,2.24,0,0,1,0-2.56l-4.71-10.87s1.24-4.3,7.26-6.24l10.18,6.57s1.81-.57,2.54.33l-8.25,7-4.24,3.4Z"/><path class="cls-39" d="M274.75,224.27c.61.73,4.54-1.52,8.8-5s7.23-6.93,6.63-7.66-4.54,1.52-8.79,5S274.16,223.54,274.75,224.27Z"/><path class="cls-40" d="M277.25,205.08a13,13,0,0,0-2.75,1.23l7.33,7.79,5.13-2.75Z"/><path class="cls-40" d="M270.61,210.83a3.44,3.44,0,0,1,.56-1.14l5.68,9a9.82,9.82,0,0,0-1.71,2.47Z"/><path class="cls-40" d="M286.13,212.89s3.05-1.86,3.68-1.53c0,0-.88-.56-2.85.25S286.13,212.89,286.13,212.89Z"/><path class="cls-41" d="M286.92,211.8l.41.31s1.66-.94,2-.77c0,0-.47-.28-1.54.12S286.92,211.8,286.92,211.8Z"/><path class="cls-40" d="M277.13,219.09l.34.5a18.6,18.6,0,0,0-2,2.25A4.1,4.1,0,0,1,277.13,219.09Z"/><path class="cls-42" d="M275.72,223.2c.39.49,3.61-1.47,7.18-4.39s6.13-5.67,5.73-6.15-3.61,1.48-7.17,4.4S275.32,222.72,275.72,223.2Z"/><path class="cls-43" d="M280.1,218.42c-.2-.25.62-1.25,1.83-2.22s2.36-1.56,2.57-1.3-.62,1.24-1.83,2.22S280.31,218.67,280.1,218.42Z"/><path class="cls-40" d="M274.77,224.28c.34-1.25,3-4.18,6.66-7.16,4.23-3.48,8.14-5.71,8.78-5a.51.51,0,0,0,0-.48c-.6-.73-4.53,1.52-8.79,5s-7.22,6.92-6.63,7.65Z"/><path class="cls-44" d="M278.08,206.52a7.11,7.11,0,0,0-1.46.64l4,4.24,2.47-1.48Z"/><path class="cls-38" d="M251.89,214a2.24,2.24,0,0,1,2.43-.78l9-7.75s4.47-.12,8.13,5.05l-3.21,11.68s1.09,1.55.45,2.52l-9.17-5.76-4.52-3Z"/><path class="cls-39" d="M251.87,213.94c-.52.79,2.81,3.87,7.44,6.87s8.77,4.82,9.29,4-2.81-3.87-7.44-6.87S252.39,213.15,251.87,213.94Z"/><path class="cls-40" d="M270.92,210.55a12.83,12.83,0,0,0-2-2.25l-5.23,9.33,4.16,4.06Z"/><path class="cls-40" d="M263.44,206a3.43,3.43,0,0,1,1.26.19l-6.9,8.13a9.5,9.5,0,0,0-2.87-.89Z"/><path class="cls-40" d="M266.14,221.37s2.69,2.35,2.56,3c0,0,.28-1-1.09-2.64S266.14,221.37,266.14,221.37Z"/><path class="cls-41" d="M267.41,221.79l-.16.5s1.39,1.29,1.34,1.66c0,0,.12-.54-.59-1.43S267.41,221.79,267.41,221.79Z"/><path class="cls-40" d="M257.52,214.65l-.36.47a19.58,19.58,0,0,0-2.75-1.23A4.11,4.11,0,0,1,257.52,214.65Z"/><path class="cls-42" d="M253.18,214.54c-.35.52,2.49,3,6.34,5.52s7.26,4.15,7.6,3.62-2.5-3-6.36-5.51S253.52,214,253.18,214.54Z"/><path class="cls-43" d="M259.06,217.28c.17-.27,1.37.22,2.66,1.08s2.2,1.78,2,2.06-1.37-.22-2.67-1.08S258.88,217.55,259.06,217.28Z"/><path class="cls-40" d="M251.87,214c1.29,0,4.89,1.64,8.82,4.21,4.59,3,7.9,6.05,7.45,6.86a.52.52,0,0,0,.45-.19c.51-.79-2.81-3.86-7.43-6.87s-8.77-4.81-9.29-4Z"/><path class="cls-44" d="M269.8,211.77a7.41,7.41,0,0,0-1.05-1.19l-2.85,5.08,2.16,1.91Z"/><path class="cls-45" d="M270.12,207.14a.58.58,0,0,1-.76.19c-.92-.48-2.94-1.53-3.12-1.61a0,0,0,0,1,0,0c1.11-2-2.82-3.15-3.49-3.32,0,0,0-.05,0-.05,2.86-.82.75-2.64.1-3.14,0,0,0,0,0,0,3.29,1.3,1.05-2.45.56-3.22,0,0,0,0,.05,0,3,2.42.13-6.14,0-6.62h0c.34.32,6.24,6,7.21,2a0,0,0,0,1,.06,0c.1,1.11.72,7.44,2.14,5.22a1.35,1.35,0,0,0,2,1s.05,0,0,0c-.26.52-2.32,4.87.59,3.4a6.78,6.78,0,0,1-1.38,1.26,4,4,0,0,0-1.17,1.12Z"/><path class="cls-46" d="M263.47,189.32c.31.9,3,8.91,0,6.56,0,0-.06,0-.05,0,.49.77,2.73,4.52-.56,3.22,0,0-.05,0,0,0,.65.5,2.76,2.32-.1,3.14,0,0,0,0,0,.05.67.17,4.6,1.29,3.49,3.32a0,0,0,0,0,0,0c.18.08,2.2,1.13,3.12,1.61a.76.76,0,0,0,.2.06C269.55,200.8,267.92,194.16,263.47,189.32Z"/><path class="cls-47" d="M269.51,208.55a31.53,31.53,0,0,0-.81-8.86,25.67,25.67,0,0,0-1.37-4.25,23,23,0,0,0-2.12-3.94,23.43,23.43,0,0,1,2.21,3.9,26.36,26.36,0,0,1,1.47,4.25,31.93,31.93,0,0,1,1,8.93.19.19,0,0,1-.2.19.19.19,0,0,1-.18-.2h0Z"/><path class="cls-47" d="M267.63,196.18a4.9,4.9,0,0,0,.66-1,10.78,10.78,0,0,0,.5-1.15c-.12.4-.25.8-.41,1.19a5,5,0,0,1-.62,1.13Z"/><path class="cls-47" d="M269.29,202.31a7.88,7.88,0,0,0,2.14-3,7.86,7.86,0,0,1-2,3.14Z"/><path class="cls-47" d="M269.47,204.58a7.3,7.3,0,0,1-3.43-2.52,7.27,7.27,0,0,0,3.48,2.34Z"/><path class="cls-47" d="M268.76,199.62a4.09,4.09,0,0,1-2.8-1.84,4,4,0,0,0,2.82,1.65Z"/><path class="cls-45" d="M270.78,206.67a.59.59,0,0,1-.26-.73c.39-1,1.22-3.09,1.28-3.28,0,0,0,0,0,0,2.13.9,2.84-3.13,2.94-3.82,0,0,0,0,.05,0,1.11,2.77,2.71.48,3.13-.22,0,0,.05,0,0,0-.95,3.4,2.55.78,3.27.22,0,0,0,0,0,0-2.09,3.27,6.12-.5,6.58-.71h0c-.29.36-5.33,6.82-1.22,7.38,0,0,.05,0,0,.05-1.1.21-7.33,1.49-5,2.66a1.37,1.37,0,0,0-.76,2.08s0,0,0,0c-.55-.21-5.09-1.8-3.32.94a6.69,6.69,0,0,1-1.4-1.24,4,4,0,0,0-1.23-1Z"/><path class="cls-46" d="M287.83,198.21c-.87.4-8.56,3.87-6.53.69,0,0,0-.06,0,0-.72.56-4.22,3.18-3.27-.22,0,0,0-.06,0,0-.42.7-2,3-3.13.22,0,0-.05,0-.05,0-.1.69-.81,4.72-2.94,3.82,0,0,0,0,0,0-.06.19-.89,2.31-1.28,3.28a.65.65,0,0,0,0,.2C277,205.45,283.47,203.14,287.83,198.21Z"/><path class="cls-47" d="M269.32,206.21a31.89,31.89,0,0,0,8.73-1.72,25.65,25.65,0,0,0,4.09-1.8,24.38,24.38,0,0,0,3.7-2.52,23.27,23.27,0,0,1-3.65,2.6,26.1,26.1,0,0,1-4.08,1.9,31.63,31.63,0,0,1-8.78,1.92.19.19,0,0,1-.21-.18.2.2,0,0,1,.18-.2h0Z"/><path class="cls-47" d="M281.42,203.06a4.53,4.53,0,0,0,1.1.55,9.84,9.84,0,0,0,1.2.38,10,10,0,0,1-1.23-.29,4.47,4.47,0,0,1-1.18-.49Z"/><path class="cls-47" d="M275.5,205.34a8,8,0,0,0,3.2,1.83,8,8,0,0,1-3.33-1.69Z"/><path class="cls-47" d="M273.26,205.75a7.44,7.44,0,0,1,2.16-3.66,7.24,7.24,0,0,0-2,3.7Z"/><path class="cls-47" d="M278.13,204.54a4.1,4.1,0,0,1,1.54-3,4,4,0,0,0-1.35,3Z"/><path class="cls-45" d="M269.51,205.47a.59.59,0,0,1,.28.73c-.36,1-1.14,3.11-1.2,3.31,0,0,0,0,0,0-2.15-.85-2.77,3.19-2.85,3.88,0,0,0,0-.05,0-1.18-2.74-2.72-.41-3.13.3,0,0,0,0,0,0,.88-3.42-2.56-.73-3.27-.15,0,0,0,0,0,0,2-3.32-6.11.64-6.57.87h0c.28-.37,5.18-6.94,1.05-7.4a0,0,0,0,1,0-.05c1.09-.24,7.29-1.66,4.91-2.78a1.36,1.36,0,0,0,.71-2.09s0-.05,0,0c.56.19,5.13,1.68,3.3-1a6.6,6.6,0,0,1,1.43,1.21,4.1,4.1,0,0,0,1.25,1Z"/><path class="cls-46" d="M252.67,214.32c.86-.42,8.47-4.06,6.51-.84,0,0,0,.06,0,0,.71-.58,4.15-3.27,3.27.15,0,0,0,.06,0,0,.41-.71,2-3,3.13-.3,0,0,0,0,.05,0,.08-.69.7-4.73,2.85-3.88,0,0,0,0,0,0,.06-.2.84-2.33,1.2-3.31a.48.48,0,0,0,0-.2C263.29,206.84,256.91,209.29,252.67,214.32Z"/><path class="cls-47" d="M271,205.9a31.77,31.77,0,0,0-8.69,1.92,26.66,26.66,0,0,0-4.05,1.9,23.19,23.19,0,0,0-3.64,2.6,24.71,24.71,0,0,1,3.59-2.69,26.46,26.46,0,0,1,4-2,31.92,31.92,0,0,1,8.74-2.12.2.2,0,0,1,.21.17.19.19,0,0,1-.17.21h0Z"/><path class="cls-47" d="M259,209.33a5,5,0,0,0-1.11-.53c-.39-.14-.8-.25-1.2-.35a10.78,10.78,0,0,1,1.23.26,4.47,4.47,0,0,1,1.19.47Z"/><path class="cls-47" d="M264.83,206.91a7.92,7.92,0,0,0-3.25-1.75,8,8,0,0,1,3.37,1.6Z"/><path class="cls-47" d="M267.05,206.45a7.33,7.33,0,0,1-2.07,3.71,7.23,7.23,0,0,0,1.89-3.74Z"/><path class="cls-47" d="M262.22,207.78a4.07,4.07,0,0,1-1.47,3,4,4,0,0,0,1.28-3Z"/><path class="cls-48" d="M268.34,205.14s-4.88-3.8-6.71-3.8-1.59,1.62-.87,2,5.89,2.67,7,2.71S268.34,205.14,268.34,205.14Z"/><path class="cls-49" d="M268.13,206.13s.7-.43.21-1c-.69-.8-2.48-.32-3.89-.93a16.79,16.79,0,0,1-3.22-2.24c-.58-.38-1.06-.4-1,.54C260.36,204.26,264.34,206.52,268.13,206.13Z"/><path class="cls-48" d="M268.49,207.53s-4.65,3.36-6.26,4.93c-1.42,1.38-2-1.39-1.33-1.91s5.62-3.65,6.76-3.87S268.49,207.53,268.49,207.53Z"/><path class="cls-49" d="M268.05,206.55s.83.32.44,1c-.56.92-3.44,2.23-4.8,3.08a12.51,12.51,0,0,0-2,1.27c-.53.48-1,.58-1.15-.39C260.29,209.7,264,206.77,268.05,206.55Z"/><path class="cls-48" d="M271.17,204.86s4.86-2.72,6.54-3.5,1.71,1.57,1,1.94-5.77,2.44-6.87,2.46S271.17,204.86,271.17,204.86Z"/><path class="cls-49" d="M271.46,205.82s-.74-.43-.29-1c.65-.75,2.56-.82,3.95-1.37a19.86,19.86,0,0,0,3-1.52c.56-.35,1-.36,1,.54C279.18,204.17,275.31,206.26,271.46,205.82Z"/><path class="cls-48" d="M271,207.1s4.81,3.15,6.48,4.64c1.48,1.31,2-1.43,1.34-1.93s-5.81-3.4-7-3.58S271,207.1,271,207.1Z"/><path class="cls-49" d="M271.42,206.11s-.84.35-.43,1c.59.88,3.56,2.08,5,2.87a12.47,12.47,0,0,1,2.08,1.18c.55.46,1.06.54,1.17-.42C279.42,209,275.58,206.18,271.42,206.11Z"/><polygon class="cls-50" points="270.63 209.08 275.79 218.4 276.26 215.53 279.13 215.55 272.26 208.21 270.63 209.08"/><polygon class="cls-50" points="270.25 208.4 270.41 222.65 269.17 218.94 267.43 220.3 269.08 207.93 270.25 208.4"/><path class="cls-51" d="M267.41,206.6c-.26-1.86.89-2.24,2.23-2.44h0c1.35-.19,2.56-.14,2.83,1.72s.26,3-2.11,3.33h0C268,209.55,267.66,208.47,267.41,206.6Z"/><path class="cls-52" d="M268.14,204.61c-.69.43-.67,3.26,1.14,3.9a3.44,3.44,0,0,0,3.15-.45c-.25.59-.84,1-2.07,1.15h0c-2.37.34-2.7-.74-2.95-2.61A1.76,1.76,0,0,1,268.14,204.61Z"/><path class="cls-50" d="M269.64,204.16h0c1.35-.19,2.56-.14,2.83,1.72a7.27,7.27,0,0,1,.11,1.54,2.84,2.84,0,0,1-3,.42,2.27,2.27,0,0,1-.14-3.65l.18,0Z"/><path class="cls-53" d="M333.71,262.23s-2-5.45.87-5c2.6.37-.29,4.92-.29,4.92"/><rect class="cls-54" x="332.16" y="261.23" width="3.65" height="2.88" rx="1.02" transform="translate(-3.79 4.89) rotate(-0.83)"/><path class="cls-55" d="M326,273.22A8.16,8.16,0,1,0,331.44,263,8.17,8.17,0,0,0,326,273.22Z"/><g class="cls-56"><polygon class="cls-30" points="327.54 267.41 327.88 269.94 330.39 270.39 328.09 271.5 328.43 274.04 326.67 272.19 324.37 273.3 325.58 271.05 323.81 269.2 326.33 269.66 327.54 267.41"/><polygon class="cls-30" points="333.69 267.97 334.5 270.39 337.05 270.38 334.99 271.89 335.8 274.32 333.72 272.83 331.67 274.34 332.44 271.91 330.36 270.42 332.92 270.4 333.69 267.97"/><polygon class="cls-30" points="339.58 267.17 340.99 269.3 343.45 268.61 341.86 270.61 343.28 272.74 340.89 271.85 339.3 273.85 339.41 271.3 337.01 270.41 339.47 269.72 339.58 267.17"/></g><path class="cls-57" d="M326.67,266.93a8.15,8.15,0,0,0,9.54,11.71,8,8,0,0,0,3.41-2.07C331,279.52,325.66,272.63,326.67,266.93Z"/><path class="cls-58" d="M336.83,265.51a16.92,16.92,0,0,1,2.13,1.87c1.5,1.66,1.49,2.57,1.89,2.42s-.5-3.53-2.53-4.92C337.34,264.2,335.8,264.63,336.83,265.51Z"/><path class="cls-53" d="M191.05,181.57s-2-5.45.86-5c2.6.37-.28,4.92-.28,4.92"/><rect class="cls-54" x="189.5" y="180.57" width="3.65" height="2.88" rx="1.02" transform="translate(-2.51 2.67) rotate(-0.79)"/><path class="cls-55" d="M183.36,192.56a8.16,8.16,0,1,0,5.41-10.18A8.15,8.15,0,0,0,183.36,192.56Z"/><g class="cls-59"><polygon class="cls-30" points="184.87 186.75 185.21 189.28 187.72 189.73 185.43 190.84 185.77 193.38 184 191.53 181.7 192.64 182.91 190.39 181.15 188.54 183.66 189 184.87 186.75"/><polygon class="cls-30" points="191.02 187.31 191.83 189.73 194.38 189.72 192.32 191.23 193.13 193.66 191.05 192.17 189 193.68 189.77 191.25 187.7 189.76 190.25 189.74 191.02 187.31"/><polygon class="cls-30" points="196.91 186.51 198.32 188.64 200.78 187.95 199.2 189.95 200.61 192.08 198.22 191.19 196.63 193.19 196.74 190.64 194.35 189.75 196.81 189.06 196.91 186.51"/></g><path class="cls-57" d="M184,186.27a8.16,8.16,0,0,0,13,9.64C188.38,198.86,183,192,184,186.27Z"/><path class="cls-58" d="M194.17,184.85a17,17,0,0,1,2.12,1.87c1.51,1.66,1.5,2.57,1.89,2.42s-.5-3.53-2.53-4.93C194.67,183.54,193.13,184,194.17,184.85Z"/><path class="cls-53" d="M258.69,115s-2-5.45.87-5c2.6.37-.29,4.92-.29,4.92"/><rect class="cls-54" x="257.15" y="114.01" width="3.65" height="2.88" rx="1.02" transform="translate(-1.65 3.76) rotate(-0.83)"/><path class="cls-55" d="M251,126a8.16,8.16,0,1,0,5.42-10.18A8.16,8.16,0,0,0,251,126Z"/><g class="cls-60"><polygon class="cls-30" points="252.52 120.19 252.86 122.72 255.37 123.17 253.07 124.28 253.42 126.81 251.65 124.97 249.35 126.08 250.56 123.83 248.8 121.98 251.31 122.44 252.52 120.19"/><polygon class="cls-30" points="258.67 120.75 259.48 123.17 262.03 123.16 259.97 124.67 260.78 127.1 258.7 125.61 256.65 127.12 257.42 124.69 255.35 123.2 257.9 123.18 258.67 120.75"/><polygon class="cls-30" points="264.56 119.95 265.97 122.08 268.43 121.39 266.85 123.39 268.26 125.52 265.87 124.63 264.28 126.63 264.39 124.08 262 123.19 264.45 122.5 264.56 119.95"/></g><path class="cls-57" d="M251.65,119.71a8.16,8.16,0,0,0,13,9.64C256,132.3,250.64,125.41,251.65,119.71Z"/><path class="cls-58" d="M261.82,118.29a17,17,0,0,1,2.12,1.87c1.5,1.66,1.49,2.57,1.89,2.42s-.5-3.54-2.53-4.92C262.32,117,260.78,117.41,261.82,118.29Z"/><path class="cls-53" d="M197.76,79.93s-2-5.44.87-5c2.59.37-.29,4.92-.29,4.92"/><rect class="cls-54" x="196.21" y="78.93" width="3.65" height="2.88" rx="1.02" transform="translate(-1.14 2.88) rotate(-0.83)"/><path class="cls-31" d="M190.07,90.92a8.16,8.16,0,1,0,5.42-10.18A8.15,8.15,0,0,0,190.07,90.92Z"/><g class="cls-61"><polygon class="cls-30" points="191.58 85.11 191.93 87.64 194.44 88.1 192.14 89.21 192.48 91.74 190.72 89.89 188.42 91 189.63 88.75 187.86 86.91 190.37 87.36 191.58 85.11"/><polygon class="cls-30" points="197.74 85.67 198.54 88.1 201.09 88.08 199.04 89.59 199.84 92.02 197.76 90.53 195.71 92.04 196.49 89.61 194.41 88.12 196.96 88.1 197.74 85.67"/><polygon class="cls-30" points="203.63 84.87 205.04 87 207.5 86.31 205.91 88.31 207.32 90.44 204.93 89.55 203.35 91.55 203.45 89 201.06 88.11 203.52 87.42 203.63 84.87"/></g><path class="cls-57" d="M190.71,84.64a8.16,8.16,0,0,0,13,9.64C195.09,97.23,189.7,90.34,190.71,84.64Z"/><path class="cls-58" d="M200.88,83.21A16.44,16.44,0,0,1,203,85.09c1.51,1.66,1.5,2.56,1.9,2.41s-.51-3.53-2.53-4.92C201.38,81.9,199.85,82.34,200.88,83.21Z"/><path class="cls-53" d="M132.55,252.58s-2-5.45.87-5c2.6.37-.29,4.92-.29,4.92"/><rect class="cls-54" x="131" y="251.58" width="3.65" height="2.88" rx="1.02" transform="translate(-3.96 2.12) rotate(-0.9)"/><path class="cls-38" d="M124.86,263.57a8.16,8.16,0,1,0,5.42-10.18A8.16,8.16,0,0,0,124.86,263.57Z"/><g class="cls-62"><polygon class="cls-50" points="126.37 257.76 126.72 260.29 129.23 260.74 126.93 261.85 127.27 264.38 125.51 262.54 123.21 263.65 124.42 261.4 122.65 259.55 125.17 260.01 126.37 257.76"/><polygon class="cls-50" points="132.53 258.32 133.33 260.74 135.89 260.73 133.83 262.24 134.63 264.66 132.56 263.18 130.5 264.69 131.28 262.26 129.2 260.77 131.75 260.75 132.53 258.32"/><polygon class="cls-50" points="138.42 257.52 139.83 259.64 142.29 258.96 140.7 260.96 142.12 263.09 139.72 262.2 138.14 264.2 138.25 261.64 135.85 260.75 138.31 260.07 138.42 257.52"/></g><path class="cls-57" d="M125.51,257.28a8.15,8.15,0,0,0,13,9.64C129.88,269.87,124.5,263,125.51,257.28Z"/><path class="cls-58" d="M135.67,255.86a16.3,16.3,0,0,1,2.12,1.87c1.51,1.66,1.5,2.57,1.9,2.41s-.51-3.53-2.53-4.92C136.18,254.55,134.64,255,135.67,255.86Z"/><path class="cls-53" d="M240.61,242.94s-2-5.44.87-5c2.59.37-.29,4.93-.29,4.93"/><rect class="cls-54" x="239.06" y="241.94" width="3.65" height="2.88" rx="1.02" transform="translate(-3.5 3.51) rotate(-0.83)"/><path class="cls-38" d="M232.92,253.93a8.16,8.16,0,1,0,5.41-10.17A8.15,8.15,0,0,0,232.92,253.93Z"/><g class="cls-63"><polygon class="cls-50" points="234.43 248.12 234.77 250.65 237.29 251.11 234.99 252.22 235.33 254.75 233.57 252.9 231.27 254.01 232.47 251.76 230.71 249.92 233.22 250.37 234.43 248.12"/><polygon class="cls-50" points="240.59 248.68 241.39 251.11 243.94 251.09 241.89 252.6 242.69 255.03 240.62 253.54 238.56 255.05 239.34 252.62 237.26 251.13 239.81 251.11 240.59 248.68"/><polygon class="cls-50" points="246.47 247.88 247.89 250.01 250.35 249.32 248.76 251.32 250.18 253.45 247.78 252.56 246.2 254.56 246.3 252.01 243.91 251.12 246.37 250.43 246.47 247.88"/></g><path class="cls-57" d="M233.56,247.65a8.16,8.16,0,0,0,13,9.64C237.94,260.24,232.56,253.35,233.56,247.65Z"/><path class="cls-58" d="M243.73,246.23a15.56,15.56,0,0,1,2.12,1.87c1.51,1.66,1.5,2.56,1.89,2.41s-.5-3.53-2.52-4.92C244.23,244.92,242.69,245.35,243.73,246.23Z"/><path class="cls-30" d="M280.27,335.23c10.18,9.22-4.62,9.16-21.56,18.33s-56.46,10.84-63.7,5.95-9.37-15.11.58-17.74,25.95-1.69,28-8.39,23.09-9.71,39.29-5S280.27,335.23,280.27,335.23Z"/><path class="cls-64" d="M258.72,353.63c12.85-7,24.45-8.61,24.87-13-2.51,2.07,1.34,1.93-8.4,1-5-.47-12.5,2.88-17.73,2.5-4.93-.35-10.51-2.63-14.86-2.5-8.95.26-6.41,7.74-24.41,10.93-18.9,3.22-27.69,2.26-27.62-7.86-3.66,4.19-1.12,11.11,4.45,14.87C202.26,364.47,241.77,362.8,258.72,353.63Z"/><path class="cls-30" d="M31.16,405.86c2.5,3.63-2.32,3.14-8.65,5.91s-19.37,2.12-21.3.14S-.5,406.2,3,405.56s8.6.21,9.87-2.13,8.39-2.77,13.26-.57S31.16,405.86,31.16,405.86Z"/><path class="cls-64" d="M20.05,409.23c-4.29,2.16-15.52.9-20,.28a4.32,4.32,0,0,0,1.17,2.4c1.93,2,15,2.62,21.29-.14s11.16-2.28,8.66-5.91c0,0-.09-.37-1.7-1.31C31,407.07,25.47,406.49,20.05,409.23Z"/><path class="cls-30" d="M131.39,406.15c-3,.45-5.35.75-7.23.88a15.13,15.13,0,0,1-4.29-.15c-2-.46-2.65-1.71-2.88-3.94s1.31-3.53,3.17-4.72,4-2.24,5.1-4c2.09-3.54,5.22-3.13,6.94-.51a16.69,16.69,0,0,1,1.66,4.45,7.93,7.93,0,0,0,2.49,4.19c2.82,2.25-2.36,5.26-3.89,4.77S131.39,406.15,131.39,406.15Z"/><path class="cls-64" d="M133,402.89a14.65,14.65,0,0,1-8.61-2.91,10.52,10.52,0,0,1-2.16-3c-.69.44-1.41.86-2.09,1.29-1.86,1.18-3.4,2.47-3.17,4.71s.84,3.48,2.88,3.94a15.13,15.13,0,0,0,4.29.15c1.88-.13,4.24-.43,7.23-.87,0,0-.45.45,1.07.94s6.71-2.52,3.89-4.77C136.35,402.33,136.14,402.76,133,402.89Z"/><path class="cls-3" d="M33.69,389.56c0,5.31,16.41,9.62,36.66,9.62S107,394.87,107,389.56s-16.42-9.63-36.66-9.63S33.69,384.24,33.69,389.56Z"/><path class="cls-4" d="M116.37,294s.26,8.29,1.27,7,2.11-5.11,9.67-11.22,6.05-7.86,6.05-7.86l1.88-.35,3.16,2.14,2.24,1.24-.37-2-2-.76-1.39-.87,1.86-2.71.06-5.64-.54.09,0,4.06-1.07,1.32-.33-3.66-.13-2-.51.09.23,2.32-.41,2.67-1.26,1.46-2,.6a11.84,11.84,0,0,1-1,2.54C131.35,283.11,117.41,295,116.37,294Z"/><path class="cls-65" d="M32.52,339.44a55.14,55.14,0,1,1,55.14,55.13A55.14,55.14,0,0,1,32.52,339.44Z"/><path class="cls-30" d="M40.63,334.73a50.42,50.42,0,1,1,50.42,50.41A50.42,50.42,0,0,1,40.63,334.73Z"/><path class="cls-65" d="M51.55,264.5a27.17,27.17,0,0,1,27.17-27.17c16.14,0,27.18,10.51,27.18,27.17a27.18,27.18,0,0,1-54.35,0Z"/><path class="cls-30" d="M60,264.5a23,23,0,0,1,22.95-23c13.63,0,23,8.88,23,23a23,23,0,0,1-45.91,0Z"/><g id="M"><path class="cls-66" d="M35.81,251.64c-.9-3.78,15.16-10.87,35.89-15.83s38.26-5.93,39.16-2.16S95.7,244.52,75,249.48,36.72,255.41,35.81,251.64Z"/><path class="cls-67" d="M75.7,241.31l11.82,4.74s3.13-1,6.3-2.08c2.9-1,5.8-2.19,7.25-2.86,3-1.43,2.53-1.16,3.46-1.65l-14.75-2.8-7.24.72Z"/><path class="cls-68" d="M89.75,236.66l6.87,1.3-2.5,1.16c-1.45.68-4.35,1.84-7.25,2.86-2,.72-4,1.36-5.18,1.74l-6-2.42,6.85-3.93Z"/><polygon class="cls-67" points="74.13 241.68 84.04 247.09 80.18 248.17 72.62 242.04 72.72 241.26 74.13 241.68"/><polygon class="cls-68" points="76.7 245.35 72.62 242.04 72.72 241.26 74.13 241.68 79.45 244.59 76.7 245.35"/><path class="cls-66" d="M92.76,235.31l-8.5-26.42s-20.37-5.7-37.4,9c1.2,8.77,4.27,27.42,4.27,27.42S73.71,244.21,92.76,235.31Z"/><path class="cls-69" d="M92.76,235.31l-1.87-5.8s-32.66,10.79-41,7.82l1.29,7.95s16.18-1.47,24.57-4S92.76,235.31,92.76,235.31Z"/><path class="cls-67" d="M81.18,210.43s-2.76,1.17-12,3.88l6.47,27s2.17-.55,4.78-1.35a92.48,92.48,0,0,0,9.3-3.3Z"/><polygon class="cls-67" points="72.62 242.04 74.13 241.68 67.69 214.82 66.19 215.18 72.62 242.04"/><path class="cls-70" d="M80,212.39a21.37,21.37,0,0,1-3.28,1.3l4,12.65a20.1,20.1,0,0,0,3.42-1.17Z"/></g><path class="cls-66" d="M85.72,252.23A3.64,3.64,0,1,1,90,255.14,3.65,3.65,0,0,1,85.72,252.23Z"/><path class="cls-30" d="M88.76,250.77a1.23,1.23,0,1,1,1.44,1A1.23,1.23,0,0,1,88.76,250.77Z"/><path class="cls-66" d="M69.92,258.5a3.64,3.64,0,1,1,4.25,2.91A3.64,3.64,0,0,1,69.92,258.5Z"/><path class="cls-30" d="M73,257.05a1.23,1.23,0,1,1,1.44,1A1.24,1.24,0,0,1,73,257.05Z"/><path class="cls-71" d="M85.15,261.24s15.22-9,19.29-10.43,4,2.14,1.2,3.75S91.34,267,91.34,267s-2.6.2-4.07-1.1S84.09,261.86,85.15,261.24Z"/><path class="cls-72" d="M91.35,267s-2.6.21-4.07-1.1l-.34-.34c4.67-3.2,17-11.63,18-12.43a4,4,0,0,0,1.6-2.65c1.74.37,1.22,2.8-1,4C102.85,256.15,91.35,267,91.35,267Z"/><path class="cls-73" d="M100.81,332.9a5,5,0,1,1,4.88,5.12A5,5,0,0,1,100.81,332.9Z"/><path class="cls-73" d="M98.94,318.46a3.85,3.85,0,1,1,3.75,3.94A3.85,3.85,0,0,1,98.94,318.46Z"/><path class="cls-73" d="M103.49,347.16a3.85,3.85,0,1,1,3.75,3.94A3.86,3.86,0,0,1,103.49,347.16Z"/><path class="cls-73" d="M94.7,308.24a3.07,3.07,0,1,1,3,3.14A3.06,3.06,0,0,1,94.7,308.24Z"/><path class="cls-73" d="M102.11,359.15a3.06,3.06,0,1,1,3,3.14A3.06,3.06,0,0,1,102.11,359.15Z"/><path class="cls-74" d="M49.06,316.86s1.35,6,0,5.17-8.14-3.25-13.71-7.38a17.46,17.46,0,0,0-9.07-3l-3,1.94-2.17,1.18V312l2-.81,1.33-.81-2.54-1.7-1.17-4h.61l.76,2.9,1.41.81-.36-2.66-.24-1.46.56-1.29.2,1.7,1,1.86,1.65.88,2.3.17a8.88,8.88,0,0,0,1.53,1.69C30.8,309.76,48.15,317.75,49.06,316.86Z"/><path class="cls-69" d="M100.06,281.27c1.94.15,6,2,3.23,4.48s-5.6,5.73-13.65,7.26-18.41,2.75-23.19,1.21-7.11-4.71-5.28-6.78,3-3,7-2,12.86.47,15.62,0a129.32,129.32,0,0,0,14.49-4.11A2.45,2.45,0,0,1,100.06,281.27Z"/><path class="cls-75" d="M82.65,290c8.91-.73,16.67-4.84,20.66-7.35,1,.8,1.43,1.92,0,3.2-2.81,2.45-5.61,5.73-13.65,7.26s-18.41,2.75-23.19,1.21c-4.39-1.41-6.68-4.19-5.61-6.25A74.85,74.85,0,0,0,82.65,290Z"/><path class="cls-69" d="M74.09,291.67s-6-.33-5.46,6.49,8.69,25.32,1.12,31-16.38,7.59-11.54,14.22c3.65,5,17,7.55,23.9,2.36,2.25-1.7,4.88-6.32,5.55-12.74.8-7.78-2.28-20.36-4.26-25.42C78,293.61,81.84,290,74.09,291.67Z"/><path class="cls-75" d="M69.75,329.36c7.57-5.71-.62-24.2-1.12-31-.22-3.11.89-4.72,2.16-5.57a5.93,5.93,0,0,0-1,4.07c.49,7.09,10.87,29.39,3.3,35.32s-14.47,5.72-9.63,12.62a11.4,11.4,0,0,0,5.79,3.82c-4.76-.56-9.13-2.46-11-5C53.37,336.94,62.18,335.06,69.75,329.36Z"/><path class="cls-69" d="M82.8,275.12s9.55,2.64,15.94-4.93C98.74,270.19,91.89,275.91,82.8,275.12Z"/><path class="cls-69" d="M98.4,270.05a.61.61,0,0,1,.45.45A.41.41,0,0,0,98.4,270.05Z"/><path class="cls-69" d="M83.23,274.49a1.3,1.3,0,0,0-.43,1.44S82.1,274.73,83.23,274.49Z"/><path class="cls-30" d="M44,397.51c-4.83,8.38,4.89,5.58,17.9,8.89s30.83,1.51,34.6-3.28,1.14-5.22-2.3-9.49c-4.45-5.51-10.58-3.64-13.3-8S63.71,383.12,54,389.45,44,397.51,44,397.51Z"/><path class="cls-64" d="M95.13,404.33c.08-.08-3.65-1.81-9.82.2s-13-5.06-15-6-.46,1.62-12,.19-8.16-6.64-8.16-6.64h0c-5.93,4.2-6.16,5.44-6.16,5.44-4.83,8.38,4.89,5.59,17.9,8.89C73.71,409.41,89.55,408.19,95.13,404.33Z"/><path class="cls-76" d="M370.19,390.42l6.18-2.61,3.09,1.87a1.36,1.36,0,0,0,1.76-.73c.71-1.21,2.3-4.14,2.3-4.14l1.41-.6s5,0,6.86,0c.55,0,.94-.33.93-.43-.08-.67-.29-2.68-.29-2.68l10.23-4.31-26.07-5.47-28.65-5.75-26.69,11.54Z"/><polygon class="cls-77" points="321.25 377.07 348.15 382.43 348.15 311.69 321.25 306.33 321.25 377.07"/><polygon class="cls-78" points="348.12 382.43 373.81 374.76 373.81 304.02 348.12 311.69 348.12 382.43"/><polygon class="cls-79" points="336.07 380.05 329.23 378.69 329.23 307.95 336.07 309.31 336.07 380.05"/><polygon class="cls-80" points="363.95 377.64 357.11 379.68 357.11 308.94 363.95 306.9 363.95 377.64"/><polygon class="cls-81" points="347.93 302 374.22 294.15 347.13 288.79 320.84 296.65 347.93 302"/><polygon class="cls-82" points="374.22 305.66 347.9 313.51 347.9 302 374.22 294.15 374.22 305.66"/><polygon class="cls-83" points="347.9 313.51 320.84 308.15 320.84 296.65 347.93 302 347.9 313.51"/><polygon class="cls-80" points="335.64 311.06 328.8 309.72 328.8 298.21 335.64 299.55 335.64 311.06"/><polygon class="cls-84" points="364.48 308.56 357.64 310.61 357.64 299.1 364.48 297.06 364.48 308.56"/><polygon class="cls-79" points="363.01 291.83 335.49 299.55 328.69 298.2 357.94 290.83 363.01 291.83"/><polygon class="cls-79" points="338.61 291.33 364.48 297.06 357.58 299.12 333.7 292.8 338.61 291.33"/><path class="cls-85" d="M345.78,293.47s3.86,1.83,8.93,3.75S360,312.29,360,312.29l3.55-7.17,3.48,5.82s.24-12.69-3.9-15a34.6,34.6,0,0,0-15.32-3.76C346.9,292.17,344.84,292,345.78,293.47Z"/><path class="cls-85" d="M346.09,294.21a77.14,77.14,0,0,1-8.45,3.62c-2.3.89-3.24,9.31-3.47,14.89l-3.35-5.81L327.41,312s-.23-10.34,2-14c1.87-3.05,10.31-5.32,15.06-4.59A3.67,3.67,0,0,1,346.09,294.21Z"/><path class="cls-79" d="M348.57,295s18.37,2.86,19.26-1.9c.45-2.39-2.11-3.1-2.5-4.28s1.16-2.79-.48-4.58a3.21,3.21,0,0,0-3-.91c-3.43.49-9.09,2.57-13.95,8.56Z"/><path class="cls-84" d="M348.78,295.76s18.31,3.17,19.05-2.67c0,0-1.57-3.55-19.26,1.9Z"/><path class="cls-79" d="M345.87,294.41l-17.79.82s0-3.25,2.18-4.88c0-1.14-1.05-3-.33-4.54.82-1.73,3.27-1.46,3.93-1.46,3.19,0,7.78,2.47,13.11,7.66Z"/><path class="cls-84" d="M345.64,295.53s-16.48,4.84-17.56-.3c0,0,1.77-5.62,17.79-.82Z"/><path class="cls-80" d="M344,293.49h0c0,1.46,1.49,2.71,3.42,2.77h.11c1.92.07,3.51-1.07,3.54-2.54h0c0-1.47-.37-3.78-3.53-3.78S344,292,344,293.49Z"/><path class="cls-76" d="M300.16,400.49l7.53-2.77,3.53,2.56c.54.39,1.52.21,2.14-.77.93-1.45,3-5,3-5l1.72-.63s6,.43,8.15.47c.65,0,1.13-.33,1.13-.47,0-.84-.14-3.35-.14-3.35L339.72,386l-10.12-2.74L296,373.86l-32.53,12.29Z"/><polygon class="cls-86" points="263.48 386.15 297.31 392.89 297.31 335.26 263.48 328.52 263.48 386.15"/><polygon class="cls-87" points="297.27 392.89 329.6 383.24 329.6 325.61 297.27 335.26 297.27 392.89"/><polygon class="cls-88" points="297.04 335.26 330.1 325.38 296.02 318.64 262.96 328.52 297.04 335.26"/><polygon class="cls-79" points="282.12 389.9 273.52 388.18 273.52 330.55 282.12 332.27 282.12 389.9"/><polygon class="cls-80" points="317.19 386.87 308.58 389.44 308.58 331.81 317.19 329.24 317.19 386.87"/><polygon class="cls-89" points="297.31 349.74 262.96 343 262.96 328.52 297.31 335.26 297.31 349.74"/><polygon class="cls-80" points="281.57 346.65 272.98 344.96 272.98 330.49 281.57 332.18 281.57 346.65"/><polygon class="cls-86" points="330.1 339.85 297 349.74 297 335.26 330.1 325.38 330.1 339.85"/><polygon class="cls-84" points="317.85 343.51 309.25 346.08 309.25 331.6 317.85 329.04 317.85 343.51"/><polygon class="cls-79" points="316 322.47 281.38 332.17 272.84 330.48 309.64 321.21 316 322.47"/><polygon class="cls-79" points="285.31 321.84 317.85 329.04 309.18 331.63 279.14 323.69 285.31 321.84"/><path class="cls-79" d="M297.44,328.52s18.7,2.91,19.61-1.94c.46-2.43-2.15-3.16-2.55-4.35-.44-1.34,1.18-2.85-.48-4.66a3.26,3.26,0,0,0-3-.93c-3.5.49-9.26,2.62-14.2,8.71Z"/><path class="cls-84" d="M297.66,329.31s18.64,3.22,19.39-2.73c0,0-1.6-3.61-19.61,1.94Z"/><path class="cls-79" d="M294.69,327.93l-18.1.84s0-3.32,2.2-5c0-1.16-1.06-3.07-.32-4.63.83-1.76,3.33-1.48,4-1.49,3.25,0,7.92,2.52,13.35,7.8Z"/><path class="cls-84" d="M294.46,329.06s-16.78,4.93-17.87-.29c0,0,1.8-5.73,18.1-.84Z"/><path class="cls-80" d="M292.77,327h0c0,1.49,1.52,2.75,3.48,2.82h.11c2,.07,3.58-1.09,3.61-2.58h0c0-1.5-.38-3.85-3.59-3.86S292.81,325.49,292.77,327Z"/><path class="cls-76" d="M371.5,403.31l6.93-2.54,3.24,2.35c.49.36,1.39.19,2-.71.85-1.33,2.79-4.58,2.79-4.58l1.58-.57s5.49.38,7.49.43c.6,0,1-.31,1-.43,0-.78-.13-3.09-.13-3.09l11.45-4.2-9.3-2.51-30.87-8.62-29.9,11.29Z"/><polygon class="cls-90" points="337.79 390.13 368.88 396.33 368.88 360.85 337.79 354.65 337.79 390.13"/><polygon class="cls-91" points="368.85 396.33 398.56 387.46 398.56 351.98 368.85 360.85 368.85 396.33"/><polygon class="cls-92" points="368.63 360.85 399.02 351.76 367.7 345.57 337.31 354.65 368.63 360.85"/><polygon class="cls-79" points="354.92 393.58 347.02 392 347.02 356.52 354.92 358.1 354.92 393.58"/><polygon class="cls-80" points="387.15 390.79 379.25 393.15 379.25 357.67 387.15 355.31 387.15 390.79"/><polygon class="cls-93" points="368.88 374.15 337.31 367.96 337.31 354.65 368.88 360.85 368.88 374.15"/><polygon class="cls-80" points="354.42 371.31 346.52 369.76 346.52 356.46 354.42 358.01 354.42 371.31"/><polygon class="cls-90" points="399.02 365.07 368.59 374.15 368.59 360.85 399.02 351.76 399.02 365.07"/><polygon class="cls-84" points="387.76 368.43 379.86 370.79 379.86 357.49 387.76 355.12 387.76 368.43"/><polygon class="cls-79" points="386.06 349.09 354.25 358 346.39 356.45 380.21 347.93 386.06 349.09"/><polygon class="cls-79" points="357.86 348.51 387.76 355.12 379.79 357.51 352.18 350.21 357.86 348.51"/><path class="cls-85" d="M366,352.48s4.45,2.11,10.32,4.33,6.15,17.42,6.15,17.42l4.11-8.29,4,6.74s.29-14.68-4.5-17.37A40.23,40.23,0,0,0,368.35,351C367.26,351,364.89,350.81,366,352.48Z"/><path class="cls-85" d="M366.33,353.33a90.22,90.22,0,0,1-9.77,4.18c-2.66,1-3.76,10.76-4,17.22L348.67,368l-3.94,5.86s-.26-11.95,2.32-16.18c2.16-3.54,11.92-6.16,17.4-5.31A4.24,4.24,0,0,1,366.33,353.33Z"/><path class="cls-79" d="M369.19,354.23s21.24,3.3,22.27-2.2c.52-2.76-2.44-3.59-2.89-4.94-.51-1.52,1.33-3.23-.55-5.29a3.72,3.72,0,0,0-3.45-1.06c-4,.56-10.51,3-16.13,9.89Z"/><path class="cls-84" d="M369.44,355.12s21.17,3.67,22-3.09c0,0-1.82-4.1-22.27,2.2Z"/><path class="cls-79" d="M366.07,353.56l-20.57.95s0-3.76,2.51-5.64c0-1.32-1.2-3.49-.37-5.25.95-2,3.78-1.69,4.54-1.69,3.69,0,9,2.85,15.17,8.85Z"/><path class="cls-84" d="M365.8,354.85s-19.06,5.6-20.3-.34c0,0,2.05-6.5,20.57-.95Z"/><path class="cls-80" d="M363.88,352.49h0c0,1.7,1.73,3.13,3.95,3.21H368c2.23.07,4.07-1.24,4.11-2.94h0c0-1.69-.44-4.37-4.09-4.37S363.93,350.79,363.88,352.49Z"/><path class="cls-94" d="M236.14,388.47,244,374.62l8-14.2c.73-1.29,1.5-2.63,2.21-3.94s1.41-2.61,2.06-3.93a54.46,54.46,0,0,0,3.27-7.91,20.93,20.93,0,0,0,1.09-7.27,8.78,8.78,0,0,0-.6-2.74,6.63,6.63,0,0,0-1.37-2.06l-.22-.23-.25-.21a3.67,3.67,0,0,0-.52-.42l-.56-.41-.63-.36a3.71,3.71,0,0,0-.66-.34l-.68-.33-.74-.28a5.21,5.21,0,0,0-.69-.24,8,8,0,0,0-2.32-.41,6.37,6.37,0,0,0-2,.26,8.81,8.81,0,0,0-1.81.81,12.21,12.21,0,0,0-1.66,1.22,18.66,18.66,0,0,0-2.56,2.83c-.66.9-1.14,1.68-1.46,2.21s-.47.82-.47.82a2.7,2.7,0,0,1-2.32,1.08,9.84,9.84,0,0,1-3.89-.61,6,6,0,0,1-3.11-2.4,3,3,0,0,1-.22-3.07s.22-.41.66-1.16,1.13-1.85,2.12-3.19a29.73,29.73,0,0,1,4.21-4.62,23.34,23.34,0,0,1,3.33-2.44,20.06,20.06,0,0,1,4.44-2,18.2,18.2,0,0,1,10.66.19c.45.13.81.28,1.2.42l1.17.46,1.19.55a11.16,11.16,0,0,1,1.18.62l1.19.7,1.17.83a11.92,11.92,0,0,1,1.14.93l.56.49c.18.17.36.37.53.55a16.86,16.86,0,0,1,3.48,5.27,19.05,19.05,0,0,1,1.39,6.11A31.62,31.62,0,0,1,270,347.52a65.58,65.58,0,0,1-3.94,9.62c-.74,1.49-1.51,2.93-2.27,4.33s-1.5,2.68-2.24,4c-2.95,5.21-5.7,10.09-8.05,14.25l-7.86,13.91c-.89,1.58-3.75,1.72-6.35.29S235.25,390,236.14,388.47Z"/><path class="cls-95" d="M235.66,326.86s-.8,1-1.51,2-1.34,2.05-1.34,2.05c.45,3.6,3.13,6.14,5.51,7.67,1.49.06,2.66-.28,3.11-1.09l.16-.29a14.81,14.81,0,0,1-4.94-5.19A8.92,8.92,0,0,1,235.66,326.86Z"/><path class="cls-95" d="M245.16,319.63l-.23.09-.61.27a17.63,17.63,0,0,0-1.79.9c-.61.37-1.22.74-1.64,1.05l-.7.51a8.42,8.42,0,0,0,.7,6.57,18.32,18.32,0,0,0,3.29,4.41l.28-.33.61-.66c.23-.23.46-.46.63-.6l.29-.27a12.58,12.58,0,0,1-2.66-6.65A7.72,7.72,0,0,1,245.16,319.63Z"/><path class="cls-95" d="M257.71,319.44l-.81-.25-.85-.24-1-.21a16.27,16.27,0,0,0-1.94-.27c-.27,0-.5-.05-.66-.05h-.26a7.71,7.71,0,0,0-3.67,5.8,14.92,14.92,0,0,0,.49,5.51l.28-.1.63-.16c.23,0,.45-.1.63-.1l.29,0a19.46,19.46,0,0,1,.19-2.11,14.48,14.48,0,0,1,.43-1.86,8.82,8.82,0,0,1,1.52-3A8.31,8.31,0,0,1,257.71,319.44Z"/><path class="cls-95" d="M267.43,325.71l-.6-.65-.63-.67-.77-.68c-.27-.22-.53-.46-.78-.65l-.71-.51-.69-.49a9.07,9.07,0,0,0-6,3.1,20.27,20.27,0,0,0-3.15,4.73l.38.15c.22.09.56.19.83.33l.77.36.24.13.08.05a13.65,13.65,0,0,1,5.46-5A7.5,7.5,0,0,1,267.43,325.71Z"/><path class="cls-95" d="M271.55,337.22V337c0-.14,0-.34,0-.6-.06-.51-.08-1.18-.21-1.87a17.25,17.25,0,0,0-.38-1.88c-.14-.51-.23-.86-.23-.86a7.7,7.7,0,0,0-1.62-.95,7.12,7.12,0,0,0-1.69-.47,8.36,8.36,0,0,0-3.28.2,12.67,12.67,0,0,0-2.83,1.13,21.8,21.8,0,0,0-2.22,1.37l.18.24a3,3,0,0,1,.35.54,2.93,2.93,0,0,1,.3.58,1.52,1.52,0,0,1,.13.27,11.8,11.8,0,0,1,7.2-.65,7.67,7.67,0,0,1,2.57,1.29A8.17,8.17,0,0,1,271.55,337.22Z"/><path class="cls-95" d="M269.82,347.93l.22-.7c.12-.43.29-1,.44-1.57.31-1.16.53-2.36.53-2.36a9,9,0,0,0-4.92-4.16,17.23,17.23,0,0,0-5.46-1,2.39,2.39,0,0,1,0,.38c0,.24,0,.55,0,.87s-.07.66-.09.9-.07.42-.07.42a18.33,18.33,0,0,1,3.79,1.23,11.88,11.88,0,0,1,2.75,1.74A9.4,9.4,0,0,1,269.82,347.93Z"/><path class="cls-95" d="M266,357.13s.49-1,1-2,.92-2.05.92-2.05a10.77,10.77,0,0,0-3.76-5.13,20.64,20.64,0,0,0-4.8-2.74l-.15.45c-.09.27-.22.63-.35,1l-.38,1c-.1.27-.18.45-.18.45a16.82,16.82,0,0,1,5.65,4.43A10.54,10.54,0,0,1,266,357.13Z"/><path class="cls-95" d="M261.54,365.39l2-3.64c-1-4.25-4.95-7.35-7.48-8.92,0,0-.36.73-.74,1.46s-.79,1.47-.79,1.47C259.44,359.08,261.09,362.65,261.54,365.39Z"/><path class="cls-95" d="M257,373.35l2-3.62c-1-4.14-4.79-7.38-7.22-9.09l-1.71,3C254.93,367.07,256.59,370.6,257,373.35Z"/><path class="cls-95" d="M252.54,381.32l2-3.62c-1-4.15-4.78-7.41-7.21-9.13l-1.71,3C250.44,375,252.1,378.56,252.54,381.32Z"/><path class="cls-95" d="M248,389.29l2-3.62c-1-4.16-4.77-7.43-7.19-9.16l-1.71,3C245.94,383,247.6,386.53,248,389.29Z"/><path class="cls-95" d="M242.89,394.89a3,3,0,0,0,2.69-1.26c-1-4.16-4.76-7.45-7.17-9.18l-1.71,3A17,17,0,0,1,242.89,394.89Z"/><path class="cls-96" d="M239.24,393.91c.21.12.43.22.64.32-.77-1.38-1.33-3.72.49-7,1.56-2.75,7.45-13.18,12.95-22.92,1.36-2.43,2.75-4.83,3.95-7s2.21-4.25,3-6,1.36-3.23,1.71-4.25c.19-.52.32-.92.4-1.19l.14-.42s.18-.58.45-1.61a25.59,25.59,0,0,0,.75-4.29,16.35,16.35,0,0,0,0-2.8,11.19,11.19,0,0,0-.62-2.93,8.94,8.94,0,0,0-1.5-2.73,10.59,10.59,0,0,0-2.44-2.26,7.78,7.78,0,0,0-.74-.47l-.77-.44c-.56-.24-1.07-.55-1.67-.75a13,13,0,0,0-3.37-.92,9.91,9.91,0,0,0-6.06,1.15,16.18,16.18,0,0,0-4.23,3.41,26,26,0,0,0-2.17,2.79,10.24,10.24,0,0,1-2.88,3,8.17,8.17,0,0,1-2.71,1.09l.65.28a9.84,9.84,0,0,0,3.89.61,2.7,2.7,0,0,0,2.32-1.08s.15-.29.47-.82.8-1.31,1.46-2.21a18.66,18.66,0,0,1,2.56-2.83,12.21,12.21,0,0,1,1.66-1.22,8.81,8.81,0,0,1,1.81-.81,6.37,6.37,0,0,1,2-.26,8,8,0,0,1,2.32.41,5.21,5.21,0,0,1,.69.24l.74.28.68.33a3.71,3.71,0,0,1,.66.34l.63.36.56.41a3.67,3.67,0,0,1,.52.42l.25.21.22.23a6.63,6.63,0,0,1,1.37,2.06,8.78,8.78,0,0,1,.6,2.74,20.93,20.93,0,0,1-1.09,7.27,54.46,54.46,0,0,1-3.27,7.91c-.65,1.32-1.34,2.62-2.06,3.93s-1.48,2.65-2.21,3.94l-8,14.2-7.82,13.85C235.25,390,236.64,392.49,239.24,393.91Z"/><path class="cls-97" d="M240.69,394.54a4.12,4.12,0,0,0,3.59-2.24c.56-1,6.77-12,12.85-22.75,1.51-2.69,3-5.36,4.43-7.86s2.7-5,3.71-7.15,1.75-4,2.23-5.38c.24-.66.42-1.19.53-1.56l.18-.56h0s.25-.78.61-2.19a30,30,0,0,0,.91-6.12,20.42,20.42,0,0,0-.29-4.37,16.83,16.83,0,0,0-1.65-4.84,17.18,17.18,0,0,0-8-7.23c-.8-.4-1.61-.69-2.42-1-.38-.16-.87-.28-1.3-.41a11.74,11.74,0,0,0-1.36-.33,16.17,16.17,0,0,0-5.68-.13,16.65,16.65,0,0,0-5.16,1.76A20.37,20.37,0,0,0,240,324.9a25.41,25.41,0,0,0-2.74,2.81,29.79,29.79,0,0,0-1.85,2.43c-1,1.42-1.51,2.4-1.67,2.67a4,4,0,0,0,0,4.45,7.44,7.44,0,0,0,1.16.6c-.42-.8-.62-2.13.4-4,.26-.45.86-1.52,1.87-3a26.37,26.37,0,0,1,4.53-5,18,18,0,0,1,3.64-2.36,14,14,0,0,1,4.62-1.32,14.34,14.34,0,0,1,4.93.34,23.61,23.61,0,0,1,4.5,1.71,17.76,17.76,0,0,1,4,2.75,13.85,13.85,0,0,1,2.82,3.82,13.71,13.71,0,0,1,1.32,4.2,18.51,18.51,0,0,1,.2,3.86,27.73,27.73,0,0,1-.86,5.55c-.33,1.3-.56,2-.56,2h0l-.17.52c-.1.34-.26.83-.49,1.46-.45,1.24-1.14,3-2.09,5.06s-2.17,4.42-3.54,6.89l-4.36,7.71c-6,10.6-12.22,21.63-13.19,23.36a4.53,4.53,0,0,1-3,2.52A8.73,8.73,0,0,0,240.69,394.54Z"/><path class="cls-48" d="M265.12,352.41s11.18-2.86,14.24-1.5,1.38,3.91-.15,4.06-11.95.21-13.81-.53S265.12,352.41,265.12,352.41Z"/><path class="cls-49" d="M264.69,354.27s-.84-1.26.43-1.86c1.79-.85,4.41,1.28,7.26,1.29s5.88-1.2,7.16-1.43,2.08.1,1.22,1.65C279.17,356.8,270.71,357.71,264.69,354.27Z"/><path class="cls-48" d="M263,356.38s5.1,9.13,6.55,13c1.28,3.4,4.43-.88,3.73-2.26s-6.49-10.34-8.22-11.55S263,356.38,263,356.38Z"/><path class="cls-49" d="M264.48,355s-1.64,0-1.5,1.36c.2,2,4,6.32,5.57,8.75s1.86,2.43,2.36,3.65,1.26,1.74,2.23.18C275,366.09,271.08,358.37,264.48,355Z"/><path class="cls-48" d="M260.61,349.85s-6-8.19-8.15-10.74-4.1,1.4-3.23,2.54,7.71,8.39,9.54,9.24S260.61,349.85,260.61,349.85Z"/><path class="cls-49" d="M259.38,351.27s1.57-.17,1.23-1.42c-.48-1.74-3.62-3.27-5.5-5.24a33.64,33.64,0,0,1-3.88-4.8c-.66-1-1.45-1.39-2.16.14C247.77,342.78,252.6,349.18,259.38,351.27Z"/><path class="cls-48" d="M259.13,353.79s-10.54,1.82-14.51,3.11c-3.51,1.15-2.25-3.93-.7-4.26s12.41-1.51,14.5-.95S259.13,353.79,259.13,353.79Z"/><path class="cls-49" d="M259.2,351.8s1.13,1.22-.07,2c-1.68,1.07-7.59.92-10.56,1.22s-3.14.11-4.41.48-2.2.13-1.64-1.59C243.58,350.73,252.2,348.86,259.2,351.8Z"/><polygon class="cls-50" points="258.17 357.44 242.13 369.46 243.62 364.24 238.82 362.15 256.12 354.75 258.17 357.44"/><polygon class="cls-50" points="259.35 356.56 247.75 380.65 252.78 375.25 254.61 378.84 261.66 356.62 259.35 356.56"/><path class="cls-51" d="M265.52,355.59c1.92-3,.3-4.47-1.8-5.79h0c-2.09-1.32-4.15-2.13-6.09.84s-2.81,4.89.88,7.21h0C262.2,360.17,263.61,358.57,265.52,355.59Z"/><path class="cls-52" d="M265.88,351.65c.82,1.25-1.46,6.05-5,5.79a6,6,0,0,1-4.91-3.08c-.05,1.19.63,2.28,2.54,3.49h0c3.69,2.32,5.1.72,7-2.26C266.63,353.86,266.55,352.64,265.88,351.65Z"/><path class="cls-50" d="M263.72,349.8h0c-2.09-1.32-4.15-2.13-6.09.84a14.29,14.29,0,0,0-1.4,2.52c.71,1.24,2.18,3.11,4.64,2.9,2.72-.23,4.41-3.75,3.14-6.07l-.29-.19Z"/><path class="cls-30" d="M441.37,387.23c6.33,8.55-4.65,6.71-18.45,11.95s-33.51,5.52-38.24.76-1.9-5.57,1.33-10.66c4.17-6.58,11.11-5.31,13.54-10.39s18.44-4.92,29.84.78S441.37,387.23,441.37,387.23Z"/><path class="cls-64" d="M386.3,401.09c-.1-.08,3.76-2.44,10.76-1s13.61-7.17,15.63-8.45.7,1.71,13.17-1.29,8.09-8.29,8.09-8.29h0c7,3.85,7.42,5.18,7.42,5.18,6.33,8.55-4.65,6.71-18.45,12C410.35,404,392.88,404.61,386.3,401.09Z"/></g></g></g></svg>